<svg height="800" viewBox="0 0 800 800" width="800" xmlns="http://www.w3.org/2000/svg">
<rect fill="black" height="100%" width="100%"/>
<path d="M408.622,470.749 L410.375,475.703 L419.385,473.911 z" fill="none" stroke="white" stroke-width="1"/>
<path d="M419.385,473.911 L419.109,468.663 L408.622,470.749 z" fill="none" stroke="white" stroke-width="1"/>
<path d="M419.385,473.911 L435.039,462.065 L419.109,468.663 z" fill="none" stroke="white" stroke-width="1"/>
<path d="M380.891,468.663 L391.378,470.749 L331.337,419.109 z" fill="none" stroke="white" stroke-width="1"/>
<path d="M391.378,470.749 L408.622,470.749 L470.749,408.622 z" fill="none" stroke="white" stroke-width="1"/>
<path d="M408.622,470.749 L389.625,475.703 L410.375,475.703 z" fill="none" stroke="white" stroke-width="1"/>
<path d="M419.385,473.911 L438.555,465.971 L435.039,462.065 z" fill="none" stroke="white" stroke-width="1"/>
<path d="M391.378,470.749 L389.625,475.703 L408.622,470.749 z" fill="none" stroke="white" stroke-width="1"/>
<path d="M468.663,419.109 L408.622,470.749 L419.109,468.663 z" fill="none" stroke="white" stroke-width="1"/>
<path d="M391.378,470.749 L380.615,473.911 L389.625,475.703 z" fill="none" stroke="white" stroke-width="1"/>
<path d="M438.555,465.971 L443.931,456.124 L435.039,462.065 z" fill="none" stroke="white" stroke-width="1"/>
<path d="M356.069,456.124 L364.961,462.065 L337.935,435.039 z" fill="none" stroke="white" stroke-width="1"/>
<path d="M438.555,465.971 L446.194,460.867 L443.931,456.124 z" fill="none" stroke="white" stroke-width="1"/>
<path d="M380.891,468.663 L380.615,473.911 L391.378,470.749 z" fill="none" stroke="white" stroke-width="1"/>
<path d="M395.931,509.924 L404.069,509.924 L410.375,475.703 z" fill="none" stroke="white" stroke-width="1"/>
<path d="M410.375,475.703 L404.069,509.924 L419.385,473.911 z" fill="none" stroke="white" stroke-width="1"/>
<path d="M419.385,473.911 L445.826,500 L438.555,465.971 z" fill="none" stroke="white" stroke-width="1"/>
<path d="M438.555,465.971 L445.826,500 L446.194,460.867 z" fill="none" stroke="white" stroke-width="1"/>
<path d="M395.931,509.924 L410.375,475.703 L389.625,475.703 z" fill="none" stroke="white" stroke-width="1"/>
<path d="M404.069,509.924 L438.307,503.115 L419.385,473.911 z" fill="none" stroke="white" stroke-width="1"/>
<path d="M395.927,510.166 L404.073,510.166 L404.069,509.924 z" fill="none" stroke="white" stroke-width="1"/>
<path d="M404.069,509.924 L404.073,510.166 L438.307,503.115 z" fill="none" stroke="white" stroke-width="1"/>
<path d="M404.073,510.166 L438.396,503.339 L438.307,503.115 z" fill="none" stroke="white" stroke-width="1"/>
<path d="M438.307,503.115 L445.826,500 L419.385,473.911 z" fill="none" stroke="white" stroke-width="1"/>
<path d="M380.615,473.911 L395.931,509.924 L389.625,475.703 z" fill="none" stroke="white" stroke-width="1"/>
<path d="M438.396,503.339 L445.826,500 L438.307,503.115 z" fill="none" stroke="white" stroke-width="1"/>
<path d="M361.693,503.115 L395.927,510.166 L395.931,509.924 z" fill="none" stroke="white" stroke-width="1"/>
<path d="M395.931,509.924 L395.927,510.166 L404.069,509.924 z" fill="none" stroke="white" stroke-width="1"/>
<path d="M438.396,503.339 L445.922,500.222 L445.826,500 z" fill="none" stroke="white" stroke-width="1"/>
<path d="M474.852,480.606 L460.867,446.194 L446.194,460.867 z" fill="none" stroke="white" stroke-width="1"/>
<path d="M403.802,516.113 L440.922,508.729 L438.396,503.339 z" fill="none" stroke="white" stroke-width="1"/>
<path d="M438.396,503.339 L440.922,508.729 L445.922,500.222 z" fill="none" stroke="white" stroke-width="1"/>
<path d="M395.927,510.166 L403.802,516.113 L404.073,510.166 z" fill="none" stroke="white" stroke-width="1"/>
<path d="M404.073,510.166 L403.802,516.113 L438.396,503.339 z" fill="none" stroke="white" stroke-width="1"/>
<path d="M361.604,503.339 L396.198,516.113 L395.927,510.166 z" fill="none" stroke="white" stroke-width="1"/>
<path d="M395.927,510.166 L396.198,516.113 L403.802,516.113 z" fill="none" stroke="white" stroke-width="1"/>
<path d="M440.922,508.729 L447.947,505.82 L445.922,500.222 z" fill="none" stroke="white" stroke-width="1"/>
<path d="M460.867,446.194 L456.124,443.931 L446.194,460.867 z" fill="none" stroke="white" stroke-width="1"/>
<path d="M468.663,419.109 L419.109,468.663 L435.039,462.065 z" fill="none" stroke="white" stroke-width="1"/>
<path d="M380.891,468.663 L364.961,462.065 L380.615,473.911 z" fill="none" stroke="white" stroke-width="1"/>
<path d="M380.615,473.911 L361.693,503.115 L395.931,509.924 z" fill="none" stroke="white" stroke-width="1"/>
<path d="M446.194,460.867 L456.124,443.931 L443.931,456.124 z" fill="none" stroke="white" stroke-width="1"/>
<path d="M443.931,456.124 L462.065,435.039 L435.039,462.065 z" fill="none" stroke="white" stroke-width="1"/>
<path d="M446.194,460.867 L445.826,500 L474.852,480.606 z" fill="none" stroke="white" stroke-width="1"/>
<path d="M364.961,462.065 L361.445,465.971 L380.615,473.911 z" fill="none" stroke="white" stroke-width="1"/>
<path d="M474.852,480.606 L445.826,500 L475.019,480.779 z" fill="none" stroke="white" stroke-width="1"/>
<path d="M396.198,516.113 L400.272,529.999 L403.802,516.113 z" fill="none" stroke="white" stroke-width="1"/>
<path d="M445.826,540 L449.497,520.208 L440.922,508.729 z" fill="none" stroke="white" stroke-width="1"/>
<path d="M440.922,508.729 L450,519.999 L447.947,505.82 z" fill="none" stroke="white" stroke-width="1"/>
<path d="M399.728,529.999 L400.272,529.999 L396.198,516.113 z" fill="none" stroke="white" stroke-width="1"/>
<path d="M445.826,540 L440.922,508.729 L403.802,516.113 z" fill="none" stroke="white" stroke-width="1"/>
<path d="M475.019,480.779 L445.826,500 L445.922,500.222 z" fill="none" stroke="white" stroke-width="1"/>
<path d="M343.876,443.931 L356.069,456.124 L337.935,435.039 z" fill="none" stroke="white" stroke-width="1"/>
<path d="M364.961,462.065 L356.069,456.124 L361.445,465.971 z" fill="none" stroke="white" stroke-width="1"/>
<path d="M465.971,438.555 L462.065,435.039 L456.124,443.931 z" fill="none" stroke="white" stroke-width="1"/>
<path d="M456.124,443.931 L462.065,435.039 L443.931,456.124 z" fill="none" stroke="white" stroke-width="1"/>
<path d="M449.497,520.208 L450,519.999 L440.922,508.729 z" fill="none" stroke="white" stroke-width="1"/>
<path d="M388.762,546.88 L399.728,529.999 L396.198,516.113 z" fill="none" stroke="white" stroke-width="1"/>
<path d="M354.174,500 L380.615,473.911 L361.445,465.971 z" fill="none" stroke="white" stroke-width="1"/>
<path d="M354.174,500 L361.693,503.115 L380.615,473.911 z" fill="none" stroke="white" stroke-width="1"/>
<path d="M475.019,480.779 L445.922,500.222 L479.416,484.793 z" fill="none" stroke="white" stroke-width="1"/>
<path d="M460.867,446.194 L465.971,438.555 L456.124,443.931 z" fill="none" stroke="white" stroke-width="1"/>
<path d="M356.069,456.124 L353.806,460.867 L361.445,465.971 z" fill="none" stroke="white" stroke-width="1"/>
<path d="M500,445.826 L465.971,438.555 L460.867,446.194 z" fill="none" stroke="white" stroke-width="1"/>
<path d="M479.416,484.793 L445.922,500.222 L447.947,505.82 z" fill="none" stroke="white" stroke-width="1"/>
<path d="M474.852,480.606 L480.606,474.852 L460.867,446.194 z" fill="none" stroke="white" stroke-width="1"/>
<path d="M354.174,500 L361.604,503.339 L361.693,503.115 z" fill="none" stroke="white" stroke-width="1"/>
<path d="M361.693,503.115 L361.604,503.339 L395.927,510.166 z" fill="none" stroke="white" stroke-width="1"/>
<path d="M480.779,475.019 L480.606,474.852 L475.019,480.779 z" fill="none" stroke="white" stroke-width="1"/>
<path d="M475.019,480.779 L480.606,474.852 L474.852,480.606 z" fill="none" stroke="white" stroke-width="1"/>
<path d="M353.806,460.867 L354.174,500 L361.445,465.971 z" fill="none" stroke="white" stroke-width="1"/>
<path d="M361.604,503.339 L359.078,508.729 L396.198,516.113 z" fill="none" stroke="white" stroke-width="1"/>
<path d="M354.078,500.222 L359.078,508.729 L361.604,503.339 z" fill="none" stroke="white" stroke-width="1"/>
<path d="M495.913,511.807 L479.416,484.793 L447.947,505.82 z" fill="none" stroke="white" stroke-width="1"/>
<path d="M479.416,484.793 L480.779,475.019 L475.019,480.779 z" fill="none" stroke="white" stroke-width="1"/>
<path d="M500,445.826 L473.911,419.385 L465.971,438.555 z" fill="none" stroke="white" stroke-width="1"/>
<path d="M324.981,480.779 L354.078,500.222 L354.174,500 z" fill="none" stroke="white" stroke-width="1"/>
<path d="M354.174,500 L354.078,500.222 L361.604,503.339 z" fill="none" stroke="white" stroke-width="1"/>
<path d="M320.584,484.793 L352.053,505.82 L354.078,500.222 z" fill="none" stroke="white" stroke-width="1"/>
<path d="M354.078,500.222 L352.053,505.82 L359.078,508.729 z" fill="none" stroke="white" stroke-width="1"/>
<path d="M388.762,546.88 L411.238,546.88 L399.728,529.999 z" fill="none" stroke="white" stroke-width="1"/>
<path d="M491.732,492.116 L484.793,479.416 L479.416,484.793 z" fill="none" stroke="white" stroke-width="1"/>
<path d="M479.416,484.793 L484.793,479.416 L480.779,475.019 z" fill="none" stroke="white" stroke-width="1"/>
<path d="M473.911,419.385 L462.065,435.039 L465.971,438.555 z" fill="none" stroke="white" stroke-width="1"/>
<path d="M411.238,546.88 L403.802,516.113 L400.272,529.999 z" fill="none" stroke="white" stroke-width="1"/>
<path d="M411.238,546.88 L445.826,540 L403.802,516.113 z" fill="none" stroke="white" stroke-width="1"/>
<path d="M449.497,520.208 L466.591,531.399 L450,519.999 z" fill="none" stroke="white" stroke-width="1"/>
<path d="M450,519.999 L466.591,531.399 L447.947,505.82 z" fill="none" stroke="white" stroke-width="1"/>
<path d="M388.762,546.88 L396.198,516.113 L354.174,540 z" fill="none" stroke="white" stroke-width="1"/>
<path d="M399.728,529.999 L411.238,546.88 L400.272,529.999 z" fill="none" stroke="white" stroke-width="1"/>
<path d="M460.867,446.194 L480.606,474.852 L500,445.826 z" fill="none" stroke="white" stroke-width="1"/>
<path d="M473.911,419.385 L468.663,419.109 L462.065,435.039 z" fill="none" stroke="white" stroke-width="1"/>
<path d="M462.065,435.039 L468.663,419.109 L435.039,462.065 z" fill="none" stroke="white" stroke-width="1"/>
<path d="M337.935,435.039 L364.961,462.065 L331.337,419.109 z" fill="none" stroke="white" stroke-width="1"/>
<path d="M356.069,456.124 L343.876,443.931 L353.806,460.867 z" fill="none" stroke="white" stroke-width="1"/>
<path d="M353.806,460.867 L325.148,480.606 L354.174,500 z" fill="none" stroke="white" stroke-width="1"/>
<path d="M500,445.826 L480.606,474.852 L480.779,475.019 z" fill="none" stroke="white" stroke-width="1"/>
<path d="M343.876,443.931 L339.133,446.194 L353.806,460.867 z" fill="none" stroke="white" stroke-width="1"/>
<path d="M354.174,540 L396.198,516.113 L359.078,508.729 z" fill="none" stroke="white" stroke-width="1"/>
<path d="M445.826,540 L466.591,531.399 L449.497,520.208 z" fill="none" stroke="white" stroke-width="1"/>
<path d="M388.649,551.305 L411.351,551.305 L411.238,546.88 z" fill="none" stroke="white" stroke-width="1"/>
<path d="M411.238,546.88 L447.415,544.132 L445.826,540 z" fill="none" stroke="white" stroke-width="1"/>
<path d="M411.351,551.305 L447.415,544.132 L411.238,546.88 z" fill="none" stroke="white" stroke-width="1"/>
<path d="M445.826,540 L468.389,535.444 L466.591,531.399 z" fill="none" stroke="white" stroke-width="1"/>
<path d="M350,519.999 L359.078,508.729 L352.053,505.82 z" fill="none" stroke="white" stroke-width="1"/>
<path d="M350,519.999 L350.503,520.208 L359.078,508.729 z" fill="none" stroke="white" stroke-width="1"/>
<path d="M495.913,511.807 L491.732,492.116 L479.416,484.793 z" fill="none" stroke="white" stroke-width="1"/>
<path d="M509.924,404.069 L475.703,410.375 L473.911,419.385 z" fill="none" stroke="white" stroke-width="1"/>
<path d="M333.409,531.399 L350,519.999 L352.053,505.82 z" fill="none" stroke="white" stroke-width="1"/>
<path d="M352.585,544.132 L388.649,551.305 L388.762,546.88 z" fill="none" stroke="white" stroke-width="1"/>
<path d="M495.913,511.807 L492.116,491.732 L491.732,492.116 z" fill="none" stroke="white" stroke-width="1"/>
<path d="M491.732,492.116 L492.116,491.732 L484.793,479.416 z" fill="none" stroke="white" stroke-width="1"/>
<path d="M354.174,540 L359.078,508.729 L350.503,520.208 z" fill="none" stroke="white" stroke-width="1"/>
<path d="M388.762,546.88 L388.649,551.305 L411.238,546.88 z" fill="none" stroke="white" stroke-width="1"/>
<path d="M447.415,544.132 L468.389,535.444 L445.826,540 z" fill="none" stroke="white" stroke-width="1"/>
<path d="M466.591,531.399 L495.913,511.807 L447.947,505.82 z" fill="none" stroke="white" stroke-width="1"/>
<path d="M473.911,419.385 L470.749,408.622 L468.663,419.109 z" fill="none" stroke="white" stroke-width="1"/>
<path d="M468.663,419.109 L470.749,408.622 L408.622,470.749 z" fill="none" stroke="white" stroke-width="1"/>
<path d="M343.876,443.931 L334.029,438.555 L339.133,446.194 z" fill="none" stroke="white" stroke-width="1"/>
<path d="M331.337,419.109 L364.961,462.065 L380.891,468.663 z" fill="none" stroke="white" stroke-width="1"/>
<path d="M473.911,419.385 L475.703,410.375 L470.749,408.622 z" fill="none" stroke="white" stroke-width="1"/>
<path d="M500,445.826 L480.779,475.019 L500.222,445.922 z" fill="none" stroke="white" stroke-width="1"/>
<path d="M337.935,435.039 L334.029,438.555 L343.876,443.931 z" fill="none" stroke="white" stroke-width="1"/>
<path d="M339.133,446.194 L325.148,480.606 L353.806,460.867 z" fill="none" stroke="white" stroke-width="1"/>
<path d="M500.222,445.922 L480.779,475.019 L484.793,479.416 z" fill="none" stroke="white" stroke-width="1"/>
<path d="M319.394,474.852 L325.148,480.606 L339.133,446.194 z" fill="none" stroke="white" stroke-width="1"/>
<path d="M319.394,474.852 L324.981,480.779 L325.148,480.606 z" fill="none" stroke="white" stroke-width="1"/>
<path d="M325.148,480.606 L324.981,480.779 L354.174,500 z" fill="none" stroke="white" stroke-width="1"/>
<path d="M505.82,447.947 L500.222,445.922 L484.793,479.416 z" fill="none" stroke="white" stroke-width="1"/>
<path d="M500,445.826 L503.115,438.307 L473.911,419.385 z" fill="none" stroke="white" stroke-width="1"/>
<path d="M468.389,535.444 L495.913,511.807 L466.591,531.399 z" fill="none" stroke="white" stroke-width="1"/>
<path d="M511.807,495.913 L505.82,447.947 L484.793,479.416 z" fill="none" stroke="white" stroke-width="1"/>
<path d="M352.585,544.132 L354.174,540 L331.611,535.444 z" fill="none" stroke="white" stroke-width="1"/>
<path d="M333.409,531.399 L354.174,540 L350.503,520.208 z" fill="none" stroke="white" stroke-width="1"/>
<path d="M319.221,475.019 L320.584,484.793 L324.981,480.779 z" fill="none" stroke="white" stroke-width="1"/>
<path d="M324.981,480.779 L320.584,484.793 L354.078,500.222 z" fill="none" stroke="white" stroke-width="1"/>
<path d="M511.807,495.913 L484.793,479.416 L492.116,491.732 z" fill="none" stroke="white" stroke-width="1"/>
<path d="M503.339,438.396 L503.115,438.307 L500,445.826 z" fill="none" stroke="white" stroke-width="1"/>
<path d="M300,445.826 L319.394,474.852 L339.133,446.194 z" fill="none" stroke="white" stroke-width="1"/>
<path d="M503.339,438.396 L500,445.826 L500.222,445.922 z" fill="none" stroke="white" stroke-width="1"/>
<path d="M300,445.826 L319.221,475.019 L319.394,474.852 z" fill="none" stroke="white" stroke-width="1"/>
<path d="M319.394,474.852 L319.221,475.019 L324.981,480.779 z" fill="none" stroke="white" stroke-width="1"/>
<path d="M508.729,440.922 L503.339,438.396 L500.222,445.922 z" fill="none" stroke="white" stroke-width="1"/>
<path d="M509.924,395.931 L475.703,389.625 L475.703,410.375 z" fill="none" stroke="white" stroke-width="1"/>
<path d="M468.389,535.444 L498.962,515.015 L495.913,511.807 z" fill="none" stroke="white" stroke-width="1"/>
<path d="M495.913,511.807 L511.807,495.913 L492.116,491.732 z" fill="none" stroke="white" stroke-width="1"/>
<path d="M333.409,531.399 L350.503,520.208 L350,519.999 z" fill="none" stroke="white" stroke-width="1"/>
<path d="M354.174,540 L352.585,544.132 L388.762,546.88 z" fill="none" stroke="white" stroke-width="1"/>
<path d="M388.649,551.305 L415.307,567.599 L411.351,551.305 z" fill="none" stroke="white" stroke-width="1"/>
<path d="M411.351,551.305 L415.307,567.599 L447.415,544.132 z" fill="none" stroke="white" stroke-width="1"/>
<path d="M447.415,544.132 L478.28,548.984 L468.389,535.444 z" fill="none" stroke="white" stroke-width="1"/>
<path d="M384.693,567.599 L415.307,567.599 L388.649,551.305 z" fill="none" stroke="white" stroke-width="1"/>
<path d="M415.307,567.599 L449.995,560.7 L447.415,544.132 z" fill="none" stroke="white" stroke-width="1"/>
<path d="M468.389,535.444 L507.686,529.335 L498.962,515.015 z" fill="none" stroke="white" stroke-width="1"/>
<path d="M329.251,408.622 L331.337,419.109 L391.378,470.749 z" fill="none" stroke="white" stroke-width="1"/>
<path d="M337.935,435.039 L326.089,419.385 L334.029,438.555 z" fill="none" stroke="white" stroke-width="1"/>
<path d="M334.029,438.555 L300,445.826 L339.133,446.194 z" fill="none" stroke="white" stroke-width="1"/>
<path d="M475.703,389.625 L470.749,391.378 L470.749,408.622 z" fill="none" stroke="white" stroke-width="1"/>
<path d="M470.749,408.622 L470.749,391.378 L391.378,470.749 z" fill="none" stroke="white" stroke-width="1"/>
<path d="M475.703,389.625 L470.749,408.622 L475.703,410.375 z" fill="none" stroke="white" stroke-width="1"/>
<path d="M505.82,447.947 L508.729,440.922 L500.222,445.922 z" fill="none" stroke="white" stroke-width="1"/>
<path d="M509.924,404.069 L473.911,419.385 L503.115,438.307 z" fill="none" stroke="white" stroke-width="1"/>
<path d="M519.999,450 L508.729,440.922 L505.82,447.947 z" fill="none" stroke="white" stroke-width="1"/>
<path d="M319.221,475.019 L315.207,479.416 L320.584,484.793 z" fill="none" stroke="white" stroke-width="1"/>
<path d="M304.087,511.807 L333.409,531.399 L352.053,505.82 z" fill="none" stroke="white" stroke-width="1"/>
<path d="M299.778,445.922 L315.207,479.416 L319.221,475.019 z" fill="none" stroke="white" stroke-width="1"/>
<path d="M352.585,544.132 L384.693,567.599 L388.649,551.305 z" fill="none" stroke="white" stroke-width="1"/>
<path d="M449.995,560.7 L478.28,548.984 L447.415,544.132 z" fill="none" stroke="white" stroke-width="1"/>
<path d="M331.611,535.444 L333.409,531.399 L304.087,511.807 z" fill="none" stroke="white" stroke-width="1"/>
<path d="M352.585,544.132 L350.005,560.7 L384.693,567.599 z" fill="none" stroke="white" stroke-width="1"/>
<path d="M515.015,498.962 L511.807,495.913 L498.962,515.015 z" fill="none" stroke="white" stroke-width="1"/>
<path d="M498.962,515.015 L511.807,495.913 L495.913,511.807 z" fill="none" stroke="white" stroke-width="1"/>
<path d="M509.924,404.069 L503.115,438.307 L510.166,404.073 z" fill="none" stroke="white" stroke-width="1"/>
<path d="M329.251,408.622 L326.089,419.385 L331.337,419.109 z" fill="none" stroke="white" stroke-width="1"/>
<path d="M329.251,408.622 L391.378,470.749 L470.749,391.378 z" fill="none" stroke="white" stroke-width="1"/>
<path d="M331.337,419.109 L326.089,419.385 L337.935,435.039 z" fill="none" stroke="white" stroke-width="1"/>
<path d="M507.686,529.335 L515.015,498.962 L498.962,515.015 z" fill="none" stroke="white" stroke-width="1"/>
<path d="M531.399,466.591 L519.999,450 L505.82,447.947 z" fill="none" stroke="white" stroke-width="1"/>
<path d="M304.087,511.807 L352.053,505.82 L320.584,484.793 z" fill="none" stroke="white" stroke-width="1"/>
<path d="M333.409,531.399 L331.611,535.444 L354.174,540 z" fill="none" stroke="white" stroke-width="1"/>
<path d="M329.251,391.378 L329.251,408.622 L470.749,391.378 z" fill="none" stroke="white" stroke-width="1"/>
<path d="M473.911,380.615 L468.663,380.891 L470.749,391.378 z" fill="none" stroke="white" stroke-width="1"/>
<path d="M531.399,466.591 L505.82,447.947 L511.807,495.913 z" fill="none" stroke="white" stroke-width="1"/>
<path d="M509.924,395.931 L473.911,380.615 L475.703,389.625 z" fill="none" stroke="white" stroke-width="1"/>
<path d="M307.884,491.732 L308.268,492.116 L315.207,479.416 z" fill="none" stroke="white" stroke-width="1"/>
<path d="M315.207,479.416 L308.268,492.116 L320.584,484.793 z" fill="none" stroke="white" stroke-width="1"/>
<path d="M531.399,466.591 L520.208,449.497 L519.999,450 z" fill="none" stroke="white" stroke-width="1"/>
<path d="M519.999,450 L520.208,449.497 L508.729,440.922 z" fill="none" stroke="white" stroke-width="1"/>
<path d="M288.193,495.913 L307.884,491.732 L315.207,479.416 z" fill="none" stroke="white" stroke-width="1"/>
<path d="M308.268,492.116 L304.087,511.807 L320.584,484.793 z" fill="none" stroke="white" stroke-width="1"/>
<path d="M329.251,408.622 L324.297,410.375 L326.089,419.385 z" fill="none" stroke="white" stroke-width="1"/>
<path d="M326.089,419.385 L300,445.826 L334.029,438.555 z" fill="none" stroke="white" stroke-width="1"/>
<path d="M503.115,438.307 L503.339,438.396 L510.166,404.073 z" fill="none" stroke="white" stroke-width="1"/>
<path d="M475.703,389.625 L473.911,380.615 L470.749,391.378 z" fill="none" stroke="white" stroke-width="1"/>
<path d="M478.28,548.984 L507.686,529.335 L468.389,535.444 z" fill="none" stroke="white" stroke-width="1"/>
<path d="M321.72,548.984 L350.005,560.7 L352.585,544.132 z" fill="none" stroke="white" stroke-width="1"/>
<path d="M415.307,567.599 L445.826,580 L449.995,560.7 z" fill="none" stroke="white" stroke-width="1"/>
<path d="M449.995,560.7 L445.826,580 L478.28,548.984 z" fill="none" stroke="white" stroke-width="1"/>
<path d="M478.28,548.984 L511.22,548.761 L507.686,529.335 z" fill="none" stroke="white" stroke-width="1"/>
<path d="M426.546,583.836 L445.826,580 L415.307,567.599 z" fill="none" stroke="white" stroke-width="1"/>
<path d="M426.546,583.836 L415.307,567.599 L373.454,583.836 z" fill="none" stroke="white" stroke-width="1"/>
<path d="M373.454,583.836 L415.307,567.599 L384.693,567.599 z" fill="none" stroke="white" stroke-width="1"/>
<path d="M473.911,380.615 L462.065,364.961 L468.663,380.891 z" fill="none" stroke="white" stroke-width="1"/>
<path d="M331.337,380.891 L329.251,391.378 L380.891,331.337 z" fill="none" stroke="white" stroke-width="1"/>
<path d="M329.251,391.378 L470.749,391.378 L408.622,329.251 z" fill="none" stroke="white" stroke-width="1"/>
<path d="M329.251,408.622 L324.297,389.625 L324.297,410.375 z" fill="none" stroke="white" stroke-width="1"/>
<path d="M510.166,404.073 L503.339,438.396 L516.113,403.802 z" fill="none" stroke="white" stroke-width="1"/>
<path d="M473.911,380.615 L465.971,361.445 L462.065,364.961 z" fill="none" stroke="white" stroke-width="1"/>
<path d="M299.778,445.922 L300,445.826 L296.661,438.396 z" fill="none" stroke="white" stroke-width="1"/>
<path d="M296.885,438.307 L300,445.826 L326.089,419.385 z" fill="none" stroke="white" stroke-width="1"/>
<path d="M301.038,515.015 L304.087,511.807 L288.193,495.913 z" fill="none" stroke="white" stroke-width="1"/>
<path d="M307.884,491.732 L304.087,511.807 L308.268,492.116 z" fill="none" stroke="white" stroke-width="1"/>
<path d="M331.611,535.444 L321.72,548.984 L352.585,544.132 z" fill="none" stroke="white" stroke-width="1"/>
<path d="M535.444,468.389 L511.807,495.913 L515.015,498.962 z" fill="none" stroke="white" stroke-width="1"/>
<path d="M535.444,468.389 L531.399,466.591 L511.807,495.913 z" fill="none" stroke="white" stroke-width="1"/>
<path d="M516.113,403.802 L503.339,438.396 L508.729,440.922 z" fill="none" stroke="white" stroke-width="1"/>
<path d="M516.113,403.802 L508.729,440.922 L540,445.826 z" fill="none" stroke="white" stroke-width="1"/>
<path d="M509.924,404.069 L509.924,395.931 L475.703,410.375 z" fill="none" stroke="white" stroke-width="1"/>
<path d="M296.885,438.307 L326.089,419.385 L290.076,404.069 z" fill="none" stroke="white" stroke-width="1"/>
<path d="M300,445.826 L299.778,445.922 L319.221,475.019 z" fill="none" stroke="white" stroke-width="1"/>
<path d="M445.826,580 L494.875,559.683 L478.28,548.984 z" fill="none" stroke="white" stroke-width="1"/>
<path d="M354.174,580 L373.454,583.836 L384.693,567.599 z" fill="none" stroke="white" stroke-width="1"/>
<path d="M511.22,548.761 L529.335,507.686 L507.686,529.335 z" fill="none" stroke="white" stroke-width="1"/>
<path d="M507.686,529.335 L529.335,507.686 L515.015,498.962 z" fill="none" stroke="white" stroke-width="1"/>
<path d="M292.314,529.335 L321.72,548.984 L331.611,535.444 z" fill="none" stroke="white" stroke-width="1"/>
<path d="M350.005,560.7 L354.174,580 L384.693,567.599 z" fill="none" stroke="white" stroke-width="1"/>
<path d="M288.193,495.913 L304.087,511.807 L307.884,491.732 z" fill="none" stroke="white" stroke-width="1"/>
<path d="M304.087,511.807 L301.038,515.015 L331.611,535.444 z" fill="none" stroke="white" stroke-width="1"/>
<path d="M529.335,507.686 L535.444,468.389 L515.015,498.962 z" fill="none" stroke="white" stroke-width="1"/>
<path d="M531.399,466.591 L540,445.826 L520.208,449.497 z" fill="none" stroke="white" stroke-width="1"/>
<path d="M500,354.174 L465.971,361.445 L473.911,380.615 z" fill="none" stroke="white" stroke-width="1"/>
<path d="M419.109,331.337 L470.749,391.378 L468.663,380.891 z" fill="none" stroke="white" stroke-width="1"/>
<path d="M326.089,380.615 L324.297,389.625 L329.251,391.378 z" fill="none" stroke="white" stroke-width="1"/>
<path d="M329.251,391.378 L324.297,389.625 L329.251,408.622 z" fill="none" stroke="white" stroke-width="1"/>
<path d="M510.166,395.927 L509.924,404.069 L510.166,404.073 z" fill="none" stroke="white" stroke-width="1"/>
<path d="M510.166,395.927 L509.924,395.931 L509.924,404.069 z" fill="none" stroke="white" stroke-width="1"/>
<path d="M290.076,404.069 L326.089,419.385 L324.297,410.375 z" fill="none" stroke="white" stroke-width="1"/>
<path d="M299.778,445.922 L294.18,447.947 L315.207,479.416 z" fill="none" stroke="white" stroke-width="1"/>
<path d="M516.113,403.802 L510.166,395.927 L510.166,404.073 z" fill="none" stroke="white" stroke-width="1"/>
<path d="M509.924,395.931 L503.115,361.693 L473.911,380.615 z" fill="none" stroke="white" stroke-width="1"/>
<path d="M289.834,404.073 L296.661,438.396 L296.885,438.307 z" fill="none" stroke="white" stroke-width="1"/>
<path d="M296.885,438.307 L296.661,438.396 L300,445.826 z" fill="none" stroke="white" stroke-width="1"/>
<path d="M540,445.826 L508.729,440.922 L520.208,449.497 z" fill="none" stroke="white" stroke-width="1"/>
<path d="M291.271,440.922 L294.18,447.947 L299.778,445.922 z" fill="none" stroke="white" stroke-width="1"/>
<path d="M337.935,364.961 L380.891,331.337 L364.961,337.935 z" fill="none" stroke="white" stroke-width="1"/>
<path d="M465.971,361.445 L456.124,356.069 L462.065,364.961 z" fill="none" stroke="white" stroke-width="1"/>
<path d="M494.875,559.683 L511.22,548.761 L478.28,548.984 z" fill="none" stroke="white" stroke-width="1"/>
<path d="M321.72,548.984 L354.174,580 L350.005,560.7 z" fill="none" stroke="white" stroke-width="1"/>
<path d="M337.935,364.961 L326.089,380.615 L331.337,380.891 z" fill="none" stroke="white" stroke-width="1"/>
<path d="M331.337,380.891 L326.089,380.615 L329.251,391.378 z" fill="none" stroke="white" stroke-width="1"/>
<path d="M283.887,403.802 L291.271,440.922 L296.661,438.396 z" fill="none" stroke="white" stroke-width="1"/>
<path d="M465.971,361.445 L460.867,353.806 L456.124,356.069 z" fill="none" stroke="white" stroke-width="1"/>
<path d="M419.109,331.337 L468.663,380.891 L462.065,364.961 z" fill="none" stroke="white" stroke-width="1"/>
<path d="M500,354.174 L460.867,353.806 L465.971,361.445 z" fill="none" stroke="white" stroke-width="1"/>
<path d="M290.076,404.069 L324.297,410.375 L290.076,395.931 z" fill="none" stroke="white" stroke-width="1"/>
<path d="M296.661,438.396 L291.271,440.922 L299.778,445.922 z" fill="none" stroke="white" stroke-width="1"/>
<path d="M294.18,447.947 L288.193,495.913 L315.207,479.416 z" fill="none" stroke="white" stroke-width="1"/>
<path d="M516.113,403.802 L516.113,396.198 L510.166,395.927 z" fill="none" stroke="white" stroke-width="1"/>
<path d="M510.166,395.927 L503.115,361.693 L509.924,395.931 z" fill="none" stroke="white" stroke-width="1"/>
<path d="M529.999,400.272 L516.113,396.198 L516.113,403.802 z" fill="none" stroke="white" stroke-width="1"/>
<path d="M426.546,583.836 L449.727,594.783 L445.826,580 z" fill="none" stroke="white" stroke-width="1"/>
<path d="M445.826,580 L449.727,594.783 L494.875,559.683 z" fill="none" stroke="white" stroke-width="1"/>
<path d="M494.875,559.683 L502.57,572.895 L511.22,548.761 z" fill="none" stroke="white" stroke-width="1"/>
<path d="M428.599,598.987 L449.727,594.783 L426.546,583.836 z" fill="none" stroke="white" stroke-width="1"/>
<path d="M429.122,600.644 L428.599,598.987 L370.878,600.644 z" fill="none" stroke="white" stroke-width="1"/>
<path d="M371.401,598.987 L428.599,598.987 L426.546,583.836 z" fill="none" stroke="white" stroke-width="1"/>
<path d="M544.132,447.415 L540,445.826 L535.444,468.389 z" fill="none" stroke="white" stroke-width="1"/>
<path d="M535.444,468.389 L540,445.826 L531.399,466.591 z" fill="none" stroke="white" stroke-width="1"/>
<path d="M284.985,498.962 L288.193,495.913 L264.556,468.389 z" fill="none" stroke="white" stroke-width="1"/>
<path d="M301.038,515.015 L292.314,529.335 L331.611,535.444 z" fill="none" stroke="white" stroke-width="1"/>
<path d="M371.401,598.987 L426.546,583.836 L373.454,583.836 z" fill="none" stroke="white" stroke-width="1"/>
<path d="M428.599,598.987 L449.878,596.516 L449.727,594.783 z" fill="none" stroke="white" stroke-width="1"/>
<path d="M429.122,600.644 L449.878,596.516 L428.599,598.987 z" fill="none" stroke="white" stroke-width="1"/>
<path d="M449.727,594.783 L502.57,572.895 L494.875,559.683 z" fill="none" stroke="white" stroke-width="1"/>
<path d="M435.039,337.935 L462.065,364.961 L456.124,356.069 z" fill="none" stroke="white" stroke-width="1"/>
<path d="M460.867,353.806 L443.931,343.876 L456.124,356.069 z" fill="none" stroke="white" stroke-width="1"/>
<path d="M268.601,466.591 L288.193,495.913 L294.18,447.947 z" fill="none" stroke="white" stroke-width="1"/>
<path d="M288.193,495.913 L284.985,498.962 L301.038,515.015 z" fill="none" stroke="white" stroke-width="1"/>
<path d="M548.984,478.28 L544.132,447.415 L535.444,468.389 z" fill="none" stroke="white" stroke-width="1"/>
<path d="M546.88,411.238 L529.999,400.272 L516.113,403.802 z" fill="none" stroke="white" stroke-width="1"/>
<path d="M503.688,574.227 L502.57,572.895 L449.727,594.783 z" fill="none" stroke="white" stroke-width="1"/>
<path d="M548.761,511.22 L548.984,478.28 L529.335,507.686 z" fill="none" stroke="white" stroke-width="1"/>
<path d="M370.878,600.644 L371.401,598.987 L350.122,596.516 z" fill="none" stroke="white" stroke-width="1"/>
<path d="M350.273,594.783 L371.401,598.987 L373.454,583.836 z" fill="none" stroke="white" stroke-width="1"/>
<path d="M270.665,507.686 L292.314,529.335 L301.038,515.015 z" fill="none" stroke="white" stroke-width="1"/>
<path d="M305.125,559.683 L350.273,594.783 L354.174,580 z" fill="none" stroke="white" stroke-width="1"/>
<path d="M548.761,511.22 L529.335,507.686 L511.22,548.761 z" fill="none" stroke="white" stroke-width="1"/>
<path d="M529.335,507.686 L548.984,478.28 L535.444,468.389 z" fill="none" stroke="white" stroke-width="1"/>
<path d="M356.069,343.876 L343.876,356.069 L364.961,337.935 z" fill="none" stroke="white" stroke-width="1"/>
<path d="M337.935,364.961 L334.029,361.445 L326.089,380.615 z" fill="none" stroke="white" stroke-width="1"/>
<path d="M438.555,334.029 L435.039,337.935 L443.931,343.876 z" fill="none" stroke="white" stroke-width="1"/>
<path d="M443.931,343.876 L435.039,337.935 L456.124,356.069 z" fill="none" stroke="white" stroke-width="1"/>
<path d="M279.792,449.497 L280.001,450 L291.271,440.922 z" fill="none" stroke="white" stroke-width="1"/>
<path d="M291.271,440.922 L280.001,450 L294.18,447.947 z" fill="none" stroke="white" stroke-width="1"/>
<path d="M546.88,411.238 L516.113,403.802 L540,445.826 z" fill="none" stroke="white" stroke-width="1"/>
<path d="M503.339,361.604 L503.115,361.693 L510.166,395.927 z" fill="none" stroke="white" stroke-width="1"/>
<path d="M350.273,594.783 L373.454,583.836 L354.174,580 z" fill="none" stroke="white" stroke-width="1"/>
<path d="M371.401,598.987 L370.878,600.644 L428.599,598.987 z" fill="none" stroke="white" stroke-width="1"/>
<path d="M449.878,596.516 L503.688,574.227 L449.727,594.783 z" fill="none" stroke="white" stroke-width="1"/>
<path d="M502.57,572.895 L520.483,560.927 L511.22,548.761 z" fill="none" stroke="white" stroke-width="1"/>
<path d="M343.876,356.069 L334.029,361.445 L337.935,364.961 z" fill="none" stroke="white" stroke-width="1"/>
<path d="M260,445.826 L279.792,449.497 L291.271,440.922 z" fill="none" stroke="white" stroke-width="1"/>
<path d="M480.606,325.148 L446.194,339.133 L460.867,353.806 z" fill="none" stroke="white" stroke-width="1"/>
<path d="M460.867,353.806 L446.194,339.133 L443.931,343.876 z" fill="none" stroke="white" stroke-width="1"/>
<path d="M546.88,411.238 L529.999,399.728 L529.999,400.272 z" fill="none" stroke="white" stroke-width="1"/>
<path d="M529.999,400.272 L529.999,399.728 L516.113,396.198 z" fill="none" stroke="white" stroke-width="1"/>
<path d="M324.297,410.375 L324.297,389.625 L290.076,395.931 z" fill="none" stroke="white" stroke-width="1"/>
<path d="M280.001,450 L268.601,466.591 L294.18,447.947 z" fill="none" stroke="white" stroke-width="1"/>
<path d="M305.125,559.683 L354.174,580 L321.72,548.984 z" fill="none" stroke="white" stroke-width="1"/>
<path d="M521.285,562.469 L520.483,560.927 L502.57,572.895 z" fill="none" stroke="white" stroke-width="1"/>
<path d="M343.876,356.069 L339.133,353.806 L334.029,361.445 z" fill="none" stroke="white" stroke-width="1"/>
<path d="M356.069,343.876 L339.133,353.806 L343.876,356.069 z" fill="none" stroke="white" stroke-width="1"/>
<path d="M446.194,339.133 L438.555,334.029 L443.931,343.876 z" fill="none" stroke="white" stroke-width="1"/>
<path d="M435.039,337.935 L419.109,331.337 L462.065,364.961 z" fill="none" stroke="white" stroke-width="1"/>
<path d="M520.483,560.927 L548.761,511.22 L511.22,548.761 z" fill="none" stroke="white" stroke-width="1"/>
<path d="M288.78,548.761 L305.125,559.683 L321.72,548.984 z" fill="none" stroke="white" stroke-width="1"/>
<path d="M419.385,326.089 L419.109,331.337 L435.039,337.935 z" fill="none" stroke="white" stroke-width="1"/>
<path d="M364.961,337.935 L343.876,356.069 L337.935,364.961 z" fill="none" stroke="white" stroke-width="1"/>
<path d="M503.688,574.227 L521.285,562.469 L502.57,572.895 z" fill="none" stroke="white" stroke-width="1"/>
<path d="M520.483,560.927 L560.927,520.483 L548.761,511.22 z" fill="none" stroke="white" stroke-width="1"/>
<path d="M296.312,574.227 L350.122,596.516 L350.273,594.783 z" fill="none" stroke="white" stroke-width="1"/>
<path d="M350.273,594.783 L350.122,596.516 L371.401,598.987 z" fill="none" stroke="white" stroke-width="1"/>
<path d="M324.297,389.625 L326.089,380.615 L290.076,395.931 z" fill="none" stroke="white" stroke-width="1"/>
<path d="M289.834,404.073 L290.076,404.069 L289.834,395.927 z" fill="none" stroke="white" stroke-width="1"/>
<path d="M503.339,361.604 L510.166,395.927 L516.113,396.198 z" fill="none" stroke="white" stroke-width="1"/>
<path d="M446.194,339.133 L445.826,300 L438.555,334.029 z" fill="none" stroke="white" stroke-width="1"/>
<path d="M290.076,395.931 L326.089,380.615 L296.885,361.693 z" fill="none" stroke="white" stroke-width="1"/>
<path d="M290.076,404.069 L289.834,404.073 L296.885,438.307 z" fill="none" stroke="white" stroke-width="1"/>
<path d="M508.729,359.078 L503.339,361.604 L516.113,396.198 z" fill="none" stroke="white" stroke-width="1"/>
<path d="M503.115,361.693 L500,354.174 L473.911,380.615 z" fill="none" stroke="white" stroke-width="1"/>
<path d="M419.385,326.089 L408.622,329.251 L419.109,331.337 z" fill="none" stroke="white" stroke-width="1"/>
<path d="M419.109,331.337 L408.622,329.251 L470.749,391.378 z" fill="none" stroke="white" stroke-width="1"/>
<path d="M356.069,343.876 L353.806,339.133 L339.133,353.806 z" fill="none" stroke="white" stroke-width="1"/>
<path d="M380.891,331.337 L337.935,364.961 L331.337,380.891 z" fill="none" stroke="white" stroke-width="1"/>
<path d="M408.622,329.251 L391.378,329.251 L329.251,391.378 z" fill="none" stroke="white" stroke-width="1"/>
<path d="M391.378,329.251 L380.891,331.337 L329.251,391.378 z" fill="none" stroke="white" stroke-width="1"/>
<path d="M289.834,395.927 L290.076,395.931 L296.885,361.693 z" fill="none" stroke="white" stroke-width="1"/>
<path d="M264.556,468.389 L268.601,466.591 L260,445.826 z" fill="none" stroke="white" stroke-width="1"/>
<path d="M500.222,354.078 L500,354.174 L503.339,361.604 z" fill="none" stroke="white" stroke-width="1"/>
<path d="M503.339,361.604 L500,354.174 L503.115,361.693 z" fill="none" stroke="white" stroke-width="1"/>
<path d="M438.555,334.029 L419.385,326.089 L435.039,337.935 z" fill="none" stroke="white" stroke-width="1"/>
<path d="M408.622,329.251 L389.625,324.297 L391.378,329.251 z" fill="none" stroke="white" stroke-width="1"/>
<path d="M445.826,300 L419.385,326.089 L438.555,334.029 z" fill="none" stroke="white" stroke-width="1"/>
<path d="M361.445,334.029 L353.806,339.133 L356.069,343.876 z" fill="none" stroke="white" stroke-width="1"/>
<path d="M283.887,396.198 L289.834,395.927 L296.661,361.604 z" fill="none" stroke="white" stroke-width="1"/>
<path d="M361.445,334.029 L356.069,343.876 L364.961,337.935 z" fill="none" stroke="white" stroke-width="1"/>
<path d="M326.089,380.615 L300,354.174 L296.885,361.693 z" fill="none" stroke="white" stroke-width="1"/>
<path d="M290.076,395.931 L289.834,395.927 L290.076,404.069 z" fill="none" stroke="white" stroke-width="1"/>
<path d="M508.729,359.078 L500.222,354.078 L503.339,361.604 z" fill="none" stroke="white" stroke-width="1"/>
<path d="M500,354.174 L480.606,325.148 L460.867,353.806 z" fill="none" stroke="white" stroke-width="1"/>
<path d="M544.132,447.415 L546.88,411.238 L540,445.826 z" fill="none" stroke="white" stroke-width="1"/>
<path d="M540,354.174 L508.729,359.078 L516.113,396.198 z" fill="none" stroke="white" stroke-width="1"/>
<path d="M551.305,411.351 L546.88,411.238 L544.132,447.415 z" fill="none" stroke="white" stroke-width="1"/>
<path d="M283.887,403.802 L296.661,438.396 L289.834,404.073 z" fill="none" stroke="white" stroke-width="1"/>
<path d="M279.792,449.497 L268.601,466.591 L280.001,450 z" fill="none" stroke="white" stroke-width="1"/>
<path d="M270.665,507.686 L288.78,548.761 L292.314,529.335 z" fill="none" stroke="white" stroke-width="1"/>
<path d="M546.88,388.762 L516.113,396.198 L529.999,399.728 z" fill="none" stroke="white" stroke-width="1"/>
<path d="M289.834,395.927 L283.887,403.802 L289.834,404.073 z" fill="none" stroke="white" stroke-width="1"/>
<path d="M419.385,326.089 L410.375,324.297 L408.622,329.251 z" fill="none" stroke="white" stroke-width="1"/>
<path d="M380.615,326.089 L364.961,337.935 L380.891,331.337 z" fill="none" stroke="white" stroke-width="1"/>
<path d="M380.615,326.089 L361.445,334.029 L364.961,337.935 z" fill="none" stroke="white" stroke-width="1"/>
<path d="M380.615,326.089 L380.891,331.337 L391.378,329.251 z" fill="none" stroke="white" stroke-width="1"/>
<path d="M292.314,529.335 L288.78,548.761 L321.72,548.984 z" fill="none" stroke="white" stroke-width="1"/>
<path d="M305.125,559.683 L297.43,572.895 L350.273,594.783 z" fill="none" stroke="white" stroke-width="1"/>
<path d="M270.665,507.686 L301.038,515.015 L284.985,498.962 z" fill="none" stroke="white" stroke-width="1"/>
<path d="M572.895,502.57 L559.683,494.875 L548.761,511.22 z" fill="none" stroke="white" stroke-width="1"/>
<path d="M548.761,511.22 L559.683,494.875 L548.984,478.28 z" fill="none" stroke="white" stroke-width="1"/>
<path d="M548.984,478.28 L560.7,449.995 L544.132,447.415 z" fill="none" stroke="white" stroke-width="1"/>
<path d="M264.556,468.389 L270.665,507.686 L284.985,498.962 z" fill="none" stroke="white" stroke-width="1"/>
<path d="M580,445.826 L560.7,449.995 L548.984,478.28 z" fill="none" stroke="white" stroke-width="1"/>
<path d="M410.375,324.297 L389.625,324.297 L408.622,329.251 z" fill="none" stroke="white" stroke-width="1"/>
<path d="M389.625,324.297 L380.615,326.089 L391.378,329.251 z" fill="none" stroke="white" stroke-width="1"/>
<path d="M567.599,415.307 L551.305,411.351 L544.132,447.415 z" fill="none" stroke="white" stroke-width="1"/>
<path d="M546.88,411.238 L546.88,388.762 L529.999,399.728 z" fill="none" stroke="white" stroke-width="1"/>
<path d="M260,445.826 L268.601,466.591 L279.792,449.497 z" fill="none" stroke="white" stroke-width="1"/>
<path d="M268.601,466.591 L264.556,468.389 L288.193,495.913 z" fill="none" stroke="white" stroke-width="1"/>
<path d="M289.834,395.927 L283.887,396.198 L283.887,403.802 z" fill="none" stroke="white" stroke-width="1"/>
<path d="M283.887,403.802 L260,445.826 L291.271,440.922 z" fill="none" stroke="white" stroke-width="1"/>
<path d="M326.089,380.615 L334.029,361.445 L300,354.174 z" fill="none" stroke="white" stroke-width="1"/>
<path d="M519.999,350 L505.82,352.053 L508.729,359.078 z" fill="none" stroke="white" stroke-width="1"/>
<path d="M508.729,359.078 L505.82,352.053 L500.222,354.078 z" fill="none" stroke="white" stroke-width="1"/>
<path d="M480.779,324.981 L480.606,325.148 L500,354.174 z" fill="none" stroke="white" stroke-width="1"/>
<path d="M429.122,600.644 L441.853,620.79 L449.878,596.516 z" fill="none" stroke="white" stroke-width="1"/>
<path d="M449.878,596.516 L447.938,625.789 L503.688,574.227 z" fill="none" stroke="white" stroke-width="1"/>
<path d="M503.688,574.227 L523.16,587.967 L521.285,562.469 z" fill="none" stroke="white" stroke-width="1"/>
<path d="M442.117,626.948 L441.853,620.79 L429.122,600.644 z" fill="none" stroke="white" stroke-width="1"/>
<path d="M447.938,625.789 L441.853,620.79 L442.117,626.948 z" fill="none" stroke="white" stroke-width="1"/>
<path d="M441.853,620.79 L445.826,620 L449.878,596.516 z" fill="none" stroke="white" stroke-width="1"/>
<path d="M296.312,574.227 L297.43,572.895 L278.715,562.469 z" fill="none" stroke="white" stroke-width="1"/>
<path d="M288.78,548.761 L297.43,572.895 L305.125,559.683 z" fill="none" stroke="white" stroke-width="1"/>
<path d="M521.285,562.469 L560.927,520.483 L520.483,560.927 z" fill="none" stroke="white" stroke-width="1"/>
<path d="M559.683,494.875 L580,445.826 L548.984,478.28 z" fill="none" stroke="white" stroke-width="1"/>
<path d="M521.285,562.469 L562.469,521.285 L560.927,520.483 z" fill="none" stroke="white" stroke-width="1"/>
<path d="M560.927,520.483 L572.895,502.57 L548.761,511.22 z" fill="none" stroke="white" stroke-width="1"/>
<path d="M279.517,560.927 L297.43,572.895 L288.78,548.761 z" fill="none" stroke="white" stroke-width="1"/>
<path d="M297.43,572.895 L296.312,574.227 L350.273,594.783 z" fill="none" stroke="white" stroke-width="1"/>
<path d="M551.305,388.649 L546.88,411.238 L551.305,411.351 z" fill="none" stroke="white" stroke-width="1"/>
<path d="M551.305,388.649 L546.88,388.762 L546.88,411.238 z" fill="none" stroke="white" stroke-width="1"/>
<path d="M255.868,447.415 L260,445.826 L253.12,411.238 z" fill="none" stroke="white" stroke-width="1"/>
<path d="M264.556,468.389 L251.016,478.28 L270.665,507.686 z" fill="none" stroke="white" stroke-width="1"/>
<path d="M442.117,626.948 L429.122,600.644 L370.878,600.644 z" fill="none" stroke="white" stroke-width="1"/>
<path d="M441.853,620.79 L447.938,625.789 L445.826,620 z" fill="none" stroke="white" stroke-width="1"/>
<path d="M445.826,620 L447.938,625.789 L449.878,596.516 z" fill="none" stroke="white" stroke-width="1"/>
<path d="M357.883,626.948 L442.117,626.948 L370.878,600.644 z" fill="none" stroke="white" stroke-width="1"/>
<path d="M354.174,620 L358.147,620.79 L350.122,596.516 z" fill="none" stroke="white" stroke-width="1"/>
<path d="M350.122,596.516 L358.147,620.79 L370.878,600.644 z" fill="none" stroke="white" stroke-width="1"/>
<path d="M525.76,593.555 L523.16,587.967 L503.688,574.227 z" fill="none" stroke="white" stroke-width="1"/>
<path d="M521.285,562.469 L530.695,590.257 L562.469,521.285 z" fill="none" stroke="white" stroke-width="1"/>
<path d="M352.062,625.789 L354.174,620 L350.122,596.516 z" fill="none" stroke="white" stroke-width="1"/>
<path d="M523.16,587.967 L526.528,585.717 L521.285,562.469 z" fill="none" stroke="white" stroke-width="1"/>
<path d="M567.599,415.307 L551.305,388.649 L551.305,411.351 z" fill="none" stroke="white" stroke-width="1"/>
<path d="M540,354.174 L520.208,350.503 L508.729,359.078 z" fill="none" stroke="white" stroke-width="1"/>
<path d="M253.12,411.238 L260,445.826 L283.887,403.802 z" fill="none" stroke="white" stroke-width="1"/>
<path d="M260,445.826 L255.868,447.415 L264.556,468.389 z" fill="none" stroke="white" stroke-width="1"/>
<path d="M334.029,361.445 L339.133,353.806 L300,354.174 z" fill="none" stroke="white" stroke-width="1"/>
<path d="M296.661,361.604 L296.885,361.693 L300,354.174 z" fill="none" stroke="white" stroke-width="1"/>
<path d="M270.001,399.728 L270.001,400.272 L283.887,403.802 z" fill="none" stroke="white" stroke-width="1"/>
<path d="M480.779,324.981 L500.222,354.078 L484.793,320.584 z" fill="none" stroke="white" stroke-width="1"/>
<path d="M480.779,324.981 L500,354.174 L500.222,354.078 z" fill="none" stroke="white" stroke-width="1"/>
<path d="M419.385,326.089 L404.069,290.076 L410.375,324.297 z" fill="none" stroke="white" stroke-width="1"/>
<path d="M270.001,399.728 L283.887,403.802 L283.887,396.198 z" fill="none" stroke="white" stroke-width="1"/>
<path d="M540,354.174 L516.113,396.198 L546.88,388.762 z" fill="none" stroke="white" stroke-width="1"/>
<path d="M484.793,320.584 L500.222,354.078 L505.82,352.053 z" fill="none" stroke="white" stroke-width="1"/>
<path d="M480.606,325.148 L474.852,319.394 L446.194,339.133 z" fill="none" stroke="white" stroke-width="1"/>
<path d="M300,354.174 L339.133,353.806 L319.394,325.148 z" fill="none" stroke="white" stroke-width="1"/>
<path d="M296.885,361.693 L296.661,361.604 L289.834,395.927 z" fill="none" stroke="white" stroke-width="1"/>
<path d="M531.399,333.409 L519.999,350 L520.208,350.503 z" fill="none" stroke="white" stroke-width="1"/>
<path d="M520.208,350.503 L519.999,350 L508.729,359.078 z" fill="none" stroke="white" stroke-width="1"/>
<path d="M253.12,388.762 L270.001,399.728 L283.887,396.198 z" fill="none" stroke="white" stroke-width="1"/>
<path d="M270.001,400.272 L253.12,411.238 L283.887,403.802 z" fill="none" stroke="white" stroke-width="1"/>
<path d="M562.469,521.285 L572.895,502.57 L560.927,520.483 z" fill="none" stroke="white" stroke-width="1"/>
<path d="M560.7,449.995 L567.599,415.307 L544.132,447.415 z" fill="none" stroke="white" stroke-width="1"/>
<path d="M251.239,511.22 L279.517,560.927 L288.78,548.761 z" fill="none" stroke="white" stroke-width="1"/>
<path d="M278.715,562.469 L279.517,560.927 L237.531,521.285 z" fill="none" stroke="white" stroke-width="1"/>
<path d="M251.239,511.22 L288.78,548.761 L270.665,507.686 z" fill="none" stroke="white" stroke-width="1"/>
<path d="M279.517,560.927 L278.715,562.469 L297.43,572.895 z" fill="none" stroke="white" stroke-width="1"/>
<path d="M352.062,625.789 L358.147,620.79 L354.174,620 z" fill="none" stroke="white" stroke-width="1"/>
<path d="M587.967,523.16 L574.227,503.688 L562.469,521.285 z" fill="none" stroke="white" stroke-width="1"/>
<path d="M562.469,521.285 L574.227,503.688 L572.895,502.57 z" fill="none" stroke="white" stroke-width="1"/>
<path d="M594.783,449.727 L580,445.826 L559.683,494.875 z" fill="none" stroke="white" stroke-width="1"/>
<path d="M580,445.826 L567.599,415.307 L560.7,449.995 z" fill="none" stroke="white" stroke-width="1"/>
<path d="M255.868,447.415 L251.016,478.28 L264.556,468.389 z" fill="none" stroke="white" stroke-width="1"/>
<path d="M299.778,354.078 L300,354.174 L319.221,324.981 z" fill="none" stroke="white" stroke-width="1"/>
<path d="M296.661,361.604 L291.271,359.078 L283.887,396.198 z" fill="none" stroke="white" stroke-width="1"/>
<path d="M299.778,354.078 L315.207,320.584 L294.18,352.053 z" fill="none" stroke="white" stroke-width="1"/>
<path d="M475.019,319.221 L474.852,319.394 L480.779,324.981 z" fill="none" stroke="white" stroke-width="1"/>
<path d="M480.779,324.981 L474.852,319.394 L480.606,325.148 z" fill="none" stroke="white" stroke-width="1"/>
<path d="M410.375,324.297 L395.931,290.076 L389.625,324.297 z" fill="none" stroke="white" stroke-width="1"/>
<path d="M484.793,320.584 L475.019,319.221 L480.779,324.981 z" fill="none" stroke="white" stroke-width="1"/>
<path d="M474.852,319.394 L445.826,300 L446.194,339.133 z" fill="none" stroke="white" stroke-width="1"/>
<path d="M339.133,353.806 L353.806,339.133 L319.394,325.148 z" fill="none" stroke="white" stroke-width="1"/>
<path d="M300,354.174 L299.778,354.078 L296.661,361.604 z" fill="none" stroke="white" stroke-width="1"/>
<path d="M523.16,587.967 L530.695,590.257 L526.528,585.717 z" fill="none" stroke="white" stroke-width="1"/>
<path d="M526.528,585.717 L530.695,590.257 L521.285,562.469 z" fill="none" stroke="white" stroke-width="1"/>
<path d="M447.938,625.789 L525.76,593.555 L503.688,574.227 z" fill="none" stroke="white" stroke-width="1"/>
<path d="M352.062,625.789 L350.122,596.516 L296.312,574.227 z" fill="none" stroke="white" stroke-width="1"/>
<path d="M352.062,625.789 L357.883,626.948 L358.147,620.79 z" fill="none" stroke="white" stroke-width="1"/>
<path d="M358.147,620.79 L357.883,626.948 L370.878,600.644 z" fill="none" stroke="white" stroke-width="1"/>
<path d="M274.24,593.555 L352.062,625.789 L296.312,574.227 z" fill="none" stroke="white" stroke-width="1"/>
<path d="M525.76,593.555 L530.695,590.257 L523.16,587.967 z" fill="none" stroke="white" stroke-width="1"/>
<path d="M299.778,354.078 L291.271,359.078 L296.661,361.604 z" fill="none" stroke="white" stroke-width="1"/>
<path d="M511.807,304.087 L484.793,320.584 L505.82,352.053 z" fill="none" stroke="white" stroke-width="1"/>
<path d="M251.016,478.28 L251.239,511.22 L270.665,507.686 z" fill="none" stroke="white" stroke-width="1"/>
<path d="M594.783,449.727 L559.683,494.875 L572.895,502.57 z" fill="none" stroke="white" stroke-width="1"/>
<path d="M492.116,308.268 L479.416,315.207 L484.793,320.584 z" fill="none" stroke="white" stroke-width="1"/>
<path d="M484.793,320.584 L479.416,315.207 L475.019,319.221 z" fill="none" stroke="white" stroke-width="1"/>
<path d="M475.019,319.221 L445.826,300 L474.852,319.394 z" fill="none" stroke="white" stroke-width="1"/>
<path d="M319.394,325.148 L353.806,339.133 L325.148,319.394 z" fill="none" stroke="white" stroke-width="1"/>
<path d="M299.778,354.078 L294.18,352.053 L291.271,359.078 z" fill="none" stroke="white" stroke-width="1"/>
<path d="M248.695,411.351 L253.12,411.238 L253.12,388.762 z" fill="none" stroke="white" stroke-width="1"/>
<path d="M544.132,352.585 L540,354.174 L546.88,388.762 z" fill="none" stroke="white" stroke-width="1"/>
<path d="M511.807,304.087 L492.116,308.268 L484.793,320.584 z" fill="none" stroke="white" stroke-width="1"/>
<path d="M544.132,352.585 L546.88,388.762 L551.305,388.649 z" fill="none" stroke="white" stroke-width="1"/>
<path d="M253.12,411.238 L270.001,399.728 L253.12,388.762 z" fill="none" stroke="white" stroke-width="1"/>
<path d="M270.001,399.728 L253.12,411.238 L270.001,400.272 z" fill="none" stroke="white" stroke-width="1"/>
<path d="M220,445.826 L240.317,494.875 L251.016,478.28 z" fill="none" stroke="white" stroke-width="1"/>
<path d="M445.922,299.778 L445.826,300 L475.019,319.221 z" fill="none" stroke="white" stroke-width="1"/>
<path d="M353.806,339.133 L361.445,334.029 L354.174,300 z" fill="none" stroke="white" stroke-width="1"/>
<path d="M319.221,324.981 L319.394,325.148 L325.148,319.394 z" fill="none" stroke="white" stroke-width="1"/>
<path d="M353.806,339.133 L354.174,300 L325.148,319.394 z" fill="none" stroke="white" stroke-width="1"/>
<path d="M325.148,319.394 L354.174,300 L324.981,319.221 z" fill="none" stroke="white" stroke-width="1"/>
<path d="M319.394,325.148 L319.221,324.981 L300,354.174 z" fill="none" stroke="white" stroke-width="1"/>
<path d="M479.416,315.207 L445.922,299.778 L475.019,319.221 z" fill="none" stroke="white" stroke-width="1"/>
<path d="M445.826,300 L438.307,296.885 L419.385,326.089 z" fill="none" stroke="white" stroke-width="1"/>
<path d="M239.3,449.995 L251.016,478.28 L255.868,447.415 z" fill="none" stroke="white" stroke-width="1"/>
<path d="M251.016,478.28 L240.317,494.875 L251.239,511.22 z" fill="none" stroke="white" stroke-width="1"/>
<path d="M273.472,585.717 L276.84,587.967 L278.715,562.469 z" fill="none" stroke="white" stroke-width="1"/>
<path d="M580,445.826 L583.836,426.546 L567.599,415.307 z" fill="none" stroke="white" stroke-width="1"/>
<path d="M567.599,415.307 L567.599,384.693 L551.305,388.649 z" fill="none" stroke="white" stroke-width="1"/>
<path d="M594.783,449.727 L583.836,426.546 L580,445.826 z" fill="none" stroke="white" stroke-width="1"/>
<path d="M253.12,388.762 L283.887,396.198 L260,354.174 z" fill="none" stroke="white" stroke-width="1"/>
<path d="M253.12,411.238 L248.695,411.351 L255.868,447.415 z" fill="none" stroke="white" stroke-width="1"/>
<path d="M567.599,384.693 L544.132,352.585 L551.305,388.649 z" fill="none" stroke="white" stroke-width="1"/>
<path d="M540,354.174 L531.399,333.409 L520.208,350.503 z" fill="none" stroke="white" stroke-width="1"/>
<path d="M583.836,373.454 L567.599,384.693 L567.599,415.307 z" fill="none" stroke="white" stroke-width="1"/>
<path d="M232.401,415.307 L239.3,449.995 L255.868,447.415 z" fill="none" stroke="white" stroke-width="1"/>
<path d="M361.445,334.029 L380.615,326.089 L354.174,300 z" fill="none" stroke="white" stroke-width="1"/>
<path d="M438.396,296.661 L438.307,296.885 L445.826,300 z" fill="none" stroke="white" stroke-width="1"/>
<path d="M395.931,290.076 L380.615,326.089 L389.625,324.297 z" fill="none" stroke="white" stroke-width="1"/>
<path d="M325.148,319.394 L324.981,319.221 L319.221,324.981 z" fill="none" stroke="white" stroke-width="1"/>
<path d="M445.922,299.778 L438.396,296.661 L445.826,300 z" fill="none" stroke="white" stroke-width="1"/>
<path d="M438.307,296.885 L404.069,290.076 L419.385,326.089 z" fill="none" stroke="white" stroke-width="1"/>
<path d="M273.472,585.717 L278.715,562.469 L269.305,590.257 z" fill="none" stroke="white" stroke-width="1"/>
<path d="M278.715,562.469 L276.84,587.967 L296.312,574.227 z" fill="none" stroke="white" stroke-width="1"/>
<path d="M590.257,530.695 L585.717,526.528 L562.469,521.285 z" fill="none" stroke="white" stroke-width="1"/>
<path d="M574.227,503.688 L594.783,449.727 L572.895,502.57 z" fill="none" stroke="white" stroke-width="1"/>
<path d="M320.584,315.207 L315.207,320.584 L324.981,319.221 z" fill="none" stroke="white" stroke-width="1"/>
<path d="M324.981,319.221 L315.207,320.584 L319.221,324.981 z" fill="none" stroke="white" stroke-width="1"/>
<path d="M319.221,324.981 L315.207,320.584 L299.778,354.078 z" fill="none" stroke="white" stroke-width="1"/>
<path d="M280.001,350 L279.792,350.503 L291.271,359.078 z" fill="none" stroke="white" stroke-width="1"/>
<path d="M479.416,315.207 L447.947,294.18 L445.922,299.778 z" fill="none" stroke="white" stroke-width="1"/>
<path d="M445.922,299.778 L440.922,291.271 L438.396,296.661 z" fill="none" stroke="white" stroke-width="1"/>
<path d="M404.073,289.834 L404.069,290.076 L438.307,296.885 z" fill="none" stroke="white" stroke-width="1"/>
<path d="M450,280.001 L447.947,294.18 L466.591,268.601 z" fill="none" stroke="white" stroke-width="1"/>
<path d="M280.001,350 L291.271,359.078 L294.18,352.053 z" fill="none" stroke="white" stroke-width="1"/>
<path d="M531.399,333.409 L505.82,352.053 L519.999,350 z" fill="none" stroke="white" stroke-width="1"/>
<path d="M268.601,333.409 L280.001,350 L294.18,352.053 z" fill="none" stroke="white" stroke-width="1"/>
<path d="M260,354.174 L283.887,396.198 L291.271,359.078 z" fill="none" stroke="white" stroke-width="1"/>
<path d="M511.807,304.087 L491.732,307.884 L492.116,308.268 z" fill="none" stroke="white" stroke-width="1"/>
<path d="M492.116,308.268 L491.732,307.884 L479.416,315.207 z" fill="none" stroke="white" stroke-width="1"/>
<path d="M535.444,331.611 L540,354.174 L544.132,352.585 z" fill="none" stroke="white" stroke-width="1"/>
<path d="M535.444,331.611 L531.399,333.409 L540,354.174 z" fill="none" stroke="white" stroke-width="1"/>
<path d="M248.695,388.649 L253.12,388.762 L255.868,352.585 z" fill="none" stroke="white" stroke-width="1"/>
<path d="M248.695,411.351 L232.401,415.307 L255.868,447.415 z" fill="none" stroke="white" stroke-width="1"/>
<path d="M585.717,526.528 L587.967,523.16 L562.469,521.285 z" fill="none" stroke="white" stroke-width="1"/>
<path d="M239.073,520.483 L279.517,560.927 L251.239,511.22 z" fill="none" stroke="white" stroke-width="1"/>
<path d="M404.073,289.834 L438.307,296.885 L438.396,296.661 z" fill="none" stroke="white" stroke-width="1"/>
<path d="M361.693,296.885 L354.174,300 L380.615,326.089 z" fill="none" stroke="white" stroke-width="1"/>
<path d="M596.516,449.878 L594.783,449.727 L574.227,503.688 z" fill="none" stroke="white" stroke-width="1"/>
<path d="M583.836,426.546 L583.836,373.454 L567.599,415.307 z" fill="none" stroke="white" stroke-width="1"/>
<path d="M237.531,521.285 L239.073,520.483 L227.105,502.57 z" fill="none" stroke="white" stroke-width="1"/>
<path d="M227.105,502.57 L239.073,520.483 L251.239,511.22 z" fill="none" stroke="white" stroke-width="1"/>
<path d="M403.802,283.887 L404.073,289.834 L438.396,296.661 z" fill="none" stroke="white" stroke-width="1"/>
<path d="M361.604,296.661 L354.078,299.778 L354.174,300 z" fill="none" stroke="white" stroke-width="1"/>
<path d="M395.931,290.076 L410.375,324.297 L404.069,290.076 z" fill="none" stroke="white" stroke-width="1"/>
<path d="M354.174,300 L354.078,299.778 L324.981,319.221 z" fill="none" stroke="white" stroke-width="1"/>
<path d="M450,280.001 L440.922,291.271 L447.947,294.18 z" fill="none" stroke="white" stroke-width="1"/>
<path d="M447.947,294.18 L440.922,291.271 L445.922,299.778 z" fill="none" stroke="white" stroke-width="1"/>
<path d="M354.078,299.778 L320.584,315.207 L324.981,319.221 z" fill="none" stroke="white" stroke-width="1"/>
<path d="M255.868,352.585 L260,354.174 L264.556,331.611 z" fill="none" stroke="white" stroke-width="1"/>
<path d="M395.927,289.834 L395.931,290.076 L404.069,290.076 z" fill="none" stroke="white" stroke-width="1"/>
<path d="M395.931,290.076 L361.693,296.885 L380.615,326.089 z" fill="none" stroke="white" stroke-width="1"/>
<path d="M404.073,289.834 L395.927,289.834 L404.069,290.076 z" fill="none" stroke="white" stroke-width="1"/>
<path d="M395.931,290.076 L395.927,289.834 L361.693,296.885 z" fill="none" stroke="white" stroke-width="1"/>
<path d="M395.927,289.834 L361.604,296.661 L361.693,296.885 z" fill="none" stroke="white" stroke-width="1"/>
<path d="M361.693,296.885 L361.604,296.661 L354.174,300 z" fill="none" stroke="white" stroke-width="1"/>
<path d="M227.105,502.57 L251.239,511.22 L240.317,494.875 z" fill="none" stroke="white" stroke-width="1"/>
<path d="M239.073,520.483 L237.531,521.285 L279.517,560.927 z" fill="none" stroke="white" stroke-width="1"/>
<path d="M625.789,447.938 L596.516,449.878 L574.227,503.688 z" fill="none" stroke="white" stroke-width="1"/>
<path d="M594.783,449.727 L598.987,428.599 L583.836,426.546 z" fill="none" stroke="white" stroke-width="1"/>
<path d="M260,354.174 L291.271,359.078 L279.792,350.503 z" fill="none" stroke="white" stroke-width="1"/>
<path d="M253.12,388.762 L248.695,388.649 L248.695,411.351 z" fill="none" stroke="white" stroke-width="1"/>
<path d="M548.984,321.72 L535.444,331.611 L544.132,352.585 z" fill="none" stroke="white" stroke-width="1"/>
<path d="M531.399,333.409 L511.807,304.087 L505.82,352.053 z" fill="none" stroke="white" stroke-width="1"/>
<path d="M585.717,526.528 L590.257,530.695 L587.967,523.16 z" fill="none" stroke="white" stroke-width="1"/>
<path d="M587.967,523.16 L593.555,525.76 L574.227,503.688 z" fill="none" stroke="white" stroke-width="1"/>
<path d="M530.695,590.257 L590.257,530.695 L562.469,521.285 z" fill="none" stroke="white" stroke-width="1"/>
<path d="M269.305,590.257 L276.84,587.967 L273.472,585.717 z" fill="none" stroke="white" stroke-width="1"/>
<path d="M269.305,590.257 L274.24,593.555 L276.84,587.967 z" fill="none" stroke="white" stroke-width="1"/>
<path d="M276.84,587.967 L274.24,593.555 L296.312,574.227 z" fill="none" stroke="white" stroke-width="1"/>
<path d="M209.743,530.695 L269.305,590.257 L278.715,562.469 z" fill="none" stroke="white" stroke-width="1"/>
<path d="M590.257,530.695 L593.555,525.76 L587.967,523.16 z" fill="none" stroke="white" stroke-width="1"/>
<path d="M404.073,289.834 L403.802,283.887 L395.927,289.834 z" fill="none" stroke="white" stroke-width="1"/>
<path d="M359.078,291.271 L354.078,299.778 L361.604,296.661 z" fill="none" stroke="white" stroke-width="1"/>
<path d="M440.922,291.271 L403.802,283.887 L438.396,296.661 z" fill="none" stroke="white" stroke-width="1"/>
<path d="M359.078,291.271 L352.053,294.18 L354.078,299.778 z" fill="none" stroke="white" stroke-width="1"/>
<path d="M354.078,299.778 L352.053,294.18 L320.584,315.207 z" fill="none" stroke="white" stroke-width="1"/>
<path d="M359.078,291.271 L361.604,296.661 L396.198,283.887 z" fill="none" stroke="white" stroke-width="1"/>
<path d="M396.198,283.887 L361.604,296.661 L395.927,289.834 z" fill="none" stroke="white" stroke-width="1"/>
<path d="M403.802,283.887 L396.198,283.887 L395.927,289.834 z" fill="none" stroke="white" stroke-width="1"/>
<path d="M225.773,503.688 L227.105,502.57 L205.217,449.727 z" fill="none" stroke="white" stroke-width="1"/>
<path d="M205.217,449.727 L227.105,502.57 L240.317,494.875 z" fill="none" stroke="white" stroke-width="1"/>
<path d="M237.531,521.285 L209.743,530.695 L278.715,562.469 z" fill="none" stroke="white" stroke-width="1"/>
<path d="M600.644,429.122 L598.987,428.599 L596.516,449.878 z" fill="none" stroke="white" stroke-width="1"/>
<path d="M596.516,449.878 L598.987,428.599 L594.783,449.727 z" fill="none" stroke="white" stroke-width="1"/>
<path d="M567.599,384.693 L560.7,350.005 L544.132,352.585 z" fill="none" stroke="white" stroke-width="1"/>
<path d="M232.401,384.693 L232.401,415.307 L248.695,411.351 z" fill="none" stroke="white" stroke-width="1"/>
<path d="M580,354.174 L560.7,350.005 L567.599,384.693 z" fill="none" stroke="white" stroke-width="1"/>
<path d="M620.79,441.853 L600.644,429.122 L596.516,449.878 z" fill="none" stroke="white" stroke-width="1"/>
<path d="M598.987,371.401 L583.836,373.454 L583.836,426.546 z" fill="none" stroke="white" stroke-width="1"/>
<path d="M220,445.826 L251.016,478.28 L239.3,449.995 z" fill="none" stroke="white" stroke-width="1"/>
<path d="M227.105,502.57 L225.773,503.688 L237.531,521.285 z" fill="none" stroke="white" stroke-width="1"/>
<path d="M515.015,301.038 L511.807,304.087 L535.444,331.611 z" fill="none" stroke="white" stroke-width="1"/>
<path d="M535.444,331.611 L511.807,304.087 L531.399,333.409 z" fill="none" stroke="white" stroke-width="1"/>
<path d="M495.913,288.193 L447.947,294.18 L479.416,315.207 z" fill="none" stroke="white" stroke-width="1"/>
<path d="M440.922,291.271 L445.826,260 L403.802,283.887 z" fill="none" stroke="white" stroke-width="1"/>
<path d="M268.601,333.409 L294.18,352.053 L288.193,304.087 z" fill="none" stroke="white" stroke-width="1"/>
<path d="M268.601,333.409 L260,354.174 L279.792,350.503 z" fill="none" stroke="white" stroke-width="1"/>
<path d="M248.695,388.649 L232.401,384.693 L248.695,411.351 z" fill="none" stroke="white" stroke-width="1"/>
<path d="M307.884,308.268 L315.207,320.584 L320.584,315.207 z" fill="none" stroke="white" stroke-width="1"/>
<path d="M495.913,288.193 L479.416,315.207 L491.732,307.884 z" fill="none" stroke="white" stroke-width="1"/>
<path d="M403.802,283.887 L399.728,270.001 L396.198,283.887 z" fill="none" stroke="white" stroke-width="1"/>
<path d="M308.268,307.884 L320.584,315.207 L304.087,288.193 z" fill="none" stroke="white" stroke-width="1"/>
<path d="M308.268,307.884 L307.884,308.268 L320.584,315.207 z" fill="none" stroke="white" stroke-width="1"/>
<path d="M466.591,268.601 L449.497,279.792 L450,280.001 z" fill="none" stroke="white" stroke-width="1"/>
<path d="M450,280.001 L449.497,279.792 L440.922,291.271 z" fill="none" stroke="white" stroke-width="1"/>
<path d="M304.087,288.193 L320.584,315.207 L352.053,294.18 z" fill="none" stroke="white" stroke-width="1"/>
<path d="M268.601,333.409 L279.792,350.503 L280.001,350 z" fill="none" stroke="white" stroke-width="1"/>
<path d="M232.401,415.307 L220,445.826 L239.3,449.995 z" fill="none" stroke="white" stroke-width="1"/>
<path d="M598.987,371.401 L583.836,426.546 L598.987,428.599 z" fill="none" stroke="white" stroke-width="1"/>
<path d="M529.335,292.314 L515.015,301.038 L535.444,331.611 z" fill="none" stroke="white" stroke-width="1"/>
<path d="M511.807,304.087 L495.913,288.193 L491.732,307.884 z" fill="none" stroke="white" stroke-width="1"/>
<path d="M548.984,321.72 L544.132,352.585 L560.7,350.005 z" fill="none" stroke="white" stroke-width="1"/>
<path d="M294.18,352.053 L315.207,320.584 L288.193,304.087 z" fill="none" stroke="white" stroke-width="1"/>
<path d="M260,354.174 L255.868,352.585 L253.12,388.762 z" fill="none" stroke="white" stroke-width="1"/>
<path d="M232.401,415.307 L216.164,426.546 L220,445.826 z" fill="none" stroke="white" stroke-width="1"/>
<path d="M264.556,331.611 L268.601,333.409 L288.193,304.087 z" fill="none" stroke="white" stroke-width="1"/>
<path d="M515.015,301.038 L495.913,288.193 L511.807,304.087 z" fill="none" stroke="white" stroke-width="1"/>
<path d="M239.3,350.005 L232.401,384.693 L255.868,352.585 z" fill="none" stroke="white" stroke-width="1"/>
<path d="M255.868,352.585 L232.401,384.693 L248.695,388.649 z" fill="none" stroke="white" stroke-width="1"/>
<path d="M580,354.174 L548.984,321.72 L560.7,350.005 z" fill="none" stroke="white" stroke-width="1"/>
<path d="M515.015,301.038 L498.962,284.985 L495.913,288.193 z" fill="none" stroke="white" stroke-width="1"/>
<path d="M359.078,291.271 L350,280.001 L352.053,294.18 z" fill="none" stroke="white" stroke-width="1"/>
<path d="M288.193,304.087 L315.207,320.584 L307.884,308.268 z" fill="none" stroke="white" stroke-width="1"/>
<path d="M350.503,279.792 L350,280.001 L359.078,291.271 z" fill="none" stroke="white" stroke-width="1"/>
<path d="M350.503,279.792 L359.078,291.271 L354.174,260 z" fill="none" stroke="white" stroke-width="1"/>
<path d="M445.826,260 L440.922,291.271 L449.497,279.792 z" fill="none" stroke="white" stroke-width="1"/>
<path d="M411.238,253.12 L400.272,270.001 L403.802,283.887 z" fill="none" stroke="white" stroke-width="1"/>
<path d="M400.272,270.001 L399.728,270.001 L403.802,283.887 z" fill="none" stroke="white" stroke-width="1"/>
<path d="M354.174,260 L359.078,291.271 L396.198,283.887 z" fill="none" stroke="white" stroke-width="1"/>
<path d="M594.783,350.273 L580,354.174 L583.836,373.454 z" fill="none" stroke="white" stroke-width="1"/>
<path d="M583.836,373.454 L580,354.174 L567.599,384.693 z" fill="none" stroke="white" stroke-width="1"/>
<path d="M216.164,373.454 L216.164,426.546 L232.401,415.307 z" fill="none" stroke="white" stroke-width="1"/>
<path d="M212.033,523.16 L237.531,521.285 L225.773,503.688 z" fill="none" stroke="white" stroke-width="1"/>
<path d="M507.686,270.665 L498.962,284.985 L515.015,301.038 z" fill="none" stroke="white" stroke-width="1"/>
<path d="M495.913,288.193 L466.591,268.601 L447.947,294.18 z" fill="none" stroke="white" stroke-width="1"/>
<path d="M288.193,304.087 L307.884,308.268 L308.268,307.884 z" fill="none" stroke="white" stroke-width="1"/>
<path d="M268.601,333.409 L264.556,331.611 L260,354.174 z" fill="none" stroke="white" stroke-width="1"/>
<path d="M625.789,447.938 L620,445.826 L596.516,449.878 z" fill="none" stroke="white" stroke-width="1"/>
<path d="M600.644,370.878 L598.987,371.401 L598.987,428.599 z" fill="none" stroke="white" stroke-width="1"/>
<path d="M212.033,523.16 L225.773,503.688 L206.445,525.76 z" fill="none" stroke="white" stroke-width="1"/>
<path d="M212.033,523.16 L214.283,526.528 L237.531,521.285 z" fill="none" stroke="white" stroke-width="1"/>
<path d="M620,445.826 L620.79,441.853 L596.516,449.878 z" fill="none" stroke="white" stroke-width="1"/>
<path d="M205.217,449.727 L240.317,494.875 L220,445.826 z" fill="none" stroke="white" stroke-width="1"/>
<path d="M468.389,264.556 L466.591,268.601 L495.913,288.193 z" fill="none" stroke="white" stroke-width="1"/>
<path d="M400.272,270.001 L411.238,253.12 L399.728,270.001 z" fill="none" stroke="white" stroke-width="1"/>
<path d="M304.087,288.193 L288.193,304.087 L308.268,307.884 z" fill="none" stroke="white" stroke-width="1"/>
<path d="M304.087,288.193 L352.053,294.18 L333.409,268.601 z" fill="none" stroke="white" stroke-width="1"/>
<path d="M203.484,449.878 L205.217,449.727 L201.013,428.599 z" fill="none" stroke="white" stroke-width="1"/>
<path d="M216.164,426.546 L205.217,449.727 L220,445.826 z" fill="none" stroke="white" stroke-width="1"/>
<path d="M600.644,370.878 L598.987,428.599 L600.644,429.122 z" fill="none" stroke="white" stroke-width="1"/>
<path d="M548.761,288.78 L529.335,292.314 L548.984,321.72 z" fill="none" stroke="white" stroke-width="1"/>
<path d="M626.948,442.117 L600.644,370.878 L600.644,429.122 z" fill="none" stroke="white" stroke-width="1"/>
<path d="M598.987,371.401 L594.783,350.273 L583.836,373.454 z" fill="none" stroke="white" stroke-width="1"/>
<path d="M201.013,428.599 L205.217,449.727 L216.164,426.546 z" fill="none" stroke="white" stroke-width="1"/>
<path d="M205.217,449.727 L203.484,449.878 L225.773,503.688 z" fill="none" stroke="white" stroke-width="1"/>
<path d="M620,445.826 L625.789,447.938 L620.79,441.853 z" fill="none" stroke="white" stroke-width="1"/>
<path d="M620.79,441.853 L626.948,442.117 L600.644,429.122 z" fill="none" stroke="white" stroke-width="1"/>
<path d="M593.555,525.76 L625.789,447.938 L574.227,503.688 z" fill="none" stroke="white" stroke-width="1"/>
<path d="M206.445,525.76 L209.743,530.695 L212.033,523.16 z" fill="none" stroke="white" stroke-width="1"/>
<path d="M212.033,523.16 L209.743,530.695 L214.283,526.528 z" fill="none" stroke="white" stroke-width="1"/>
<path d="M214.283,526.528 L209.743,530.695 L237.531,521.285 z" fill="none" stroke="white" stroke-width="1"/>
<path d="M559.683,305.125 L548.984,321.72 L580,354.174 z" fill="none" stroke="white" stroke-width="1"/>
<path d="M548.984,321.72 L529.335,292.314 L535.444,331.611 z" fill="none" stroke="white" stroke-width="1"/>
<path d="M498.962,284.985 L468.389,264.556 L495.913,288.193 z" fill="none" stroke="white" stroke-width="1"/>
<path d="M251.016,321.72 L255.868,352.585 L264.556,331.611 z" fill="none" stroke="white" stroke-width="1"/>
<path d="M251.016,321.72 L239.3,350.005 L255.868,352.585 z" fill="none" stroke="white" stroke-width="1"/>
<path d="M216.164,373.454 L201.013,428.599 L216.164,426.546 z" fill="none" stroke="white" stroke-width="1"/>
<path d="M468.389,264.556 L445.826,260 L466.591,268.601 z" fill="none" stroke="white" stroke-width="1"/>
<path d="M466.591,268.601 L445.826,260 L449.497,279.792 z" fill="none" stroke="white" stroke-width="1"/>
<path d="M333.409,268.601 L350,280.001 L350.503,279.792 z" fill="none" stroke="white" stroke-width="1"/>
<path d="M352.053,294.18 L350,280.001 L333.409,268.601 z" fill="none" stroke="white" stroke-width="1"/>
<path d="M301.038,284.985 L304.087,288.193 L331.611,264.556 z" fill="none" stroke="white" stroke-width="1"/>
<path d="M288.193,304.087 L284.985,301.038 L264.556,331.611 z" fill="none" stroke="white" stroke-width="1"/>
<path d="M304.087,288.193 L284.985,301.038 L288.193,304.087 z" fill="none" stroke="white" stroke-width="1"/>
<path d="M507.686,270.665 L468.389,264.556 L498.962,284.985 z" fill="none" stroke="white" stroke-width="1"/>
<path d="M174.211,447.938 L206.445,525.76 L225.773,503.688 z" fill="none" stroke="white" stroke-width="1"/>
<path d="M625.789,447.938 L626.948,442.117 L620.79,441.853 z" fill="none" stroke="white" stroke-width="1"/>
<path d="M596.516,350.122 L598.987,371.401 L600.644,370.878 z" fill="none" stroke="white" stroke-width="1"/>
<path d="M596.516,350.122 L594.783,350.273 L598.987,371.401 z" fill="none" stroke="white" stroke-width="1"/>
<path d="M199.356,429.122 L201.013,428.599 L201.013,371.401 z" fill="none" stroke="white" stroke-width="1"/>
<path d="M203.484,449.878 L174.211,447.938 L225.773,503.688 z" fill="none" stroke="white" stroke-width="1"/>
<path d="M354.174,260 L396.198,283.887 L388.762,253.12 z" fill="none" stroke="white" stroke-width="1"/>
<path d="M304.087,288.193 L301.038,284.985 L284.985,301.038 z" fill="none" stroke="white" stroke-width="1"/>
<path d="M468.389,264.556 L447.415,255.868 L445.826,260 z" fill="none" stroke="white" stroke-width="1"/>
<path d="M445.826,260 L411.238,253.12 L403.802,283.887 z" fill="none" stroke="white" stroke-width="1"/>
<path d="M447.415,255.868 L411.238,253.12 L445.826,260 z" fill="none" stroke="white" stroke-width="1"/>
<path d="M354.174,260 L333.409,268.601 L350.503,279.792 z" fill="none" stroke="white" stroke-width="1"/>
<path d="M216.164,373.454 L232.401,415.307 L232.401,384.693 z" fill="none" stroke="white" stroke-width="1"/>
<path d="M201.013,428.599 L199.356,429.122 L203.484,449.878 z" fill="none" stroke="white" stroke-width="1"/>
<path d="M620.79,358.147 L596.516,350.122 L600.644,370.878 z" fill="none" stroke="white" stroke-width="1"/>
<path d="M594.783,350.273 L559.683,305.125 L580,354.174 z" fill="none" stroke="white" stroke-width="1"/>
<path d="M388.762,253.12 L396.198,283.887 L399.728,270.001 z" fill="none" stroke="white" stroke-width="1"/>
<path d="M411.238,253.12 L388.762,253.12 L399.728,270.001 z" fill="none" stroke="white" stroke-width="1"/>
<path d="M572.895,297.43 L559.683,305.125 L594.783,350.273 z" fill="none" stroke="white" stroke-width="1"/>
<path d="M529.335,292.314 L507.686,270.665 L515.015,301.038 z" fill="none" stroke="white" stroke-width="1"/>
<path d="M220,354.174 L232.401,384.693 L239.3,350.005 z" fill="none" stroke="white" stroke-width="1"/>
<path d="M220,354.174 L216.164,373.454 L232.401,384.693 z" fill="none" stroke="white" stroke-width="1"/>
<path d="M548.761,288.78 L507.686,270.665 L529.335,292.314 z" fill="none" stroke="white" stroke-width="1"/>
<path d="M468.389,264.556 L478.28,251.016 L447.415,255.868 z" fill="none" stroke="white" stroke-width="1"/>
<path d="M270.665,292.314 L264.556,331.611 L284.985,301.038 z" fill="none" stroke="white" stroke-width="1"/>
<path d="M270.665,292.314 L251.016,321.72 L264.556,331.611 z" fill="none" stroke="white" stroke-width="1"/>
<path d="M447.415,255.868 L411.351,248.695 L411.238,253.12 z" fill="none" stroke="white" stroke-width="1"/>
<path d="M411.238,253.12 L411.351,248.695 L388.762,253.12 z" fill="none" stroke="white" stroke-width="1"/>
<path d="M333.409,268.601 L331.611,264.556 L304.087,288.193 z" fill="none" stroke="white" stroke-width="1"/>
<path d="M354.174,260 L331.611,264.556 L333.409,268.601 z" fill="none" stroke="white" stroke-width="1"/>
<path d="M388.762,253.12 L352.585,255.868 L354.174,260 z" fill="none" stroke="white" stroke-width="1"/>
<path d="M354.174,260 L352.585,255.868 L331.611,264.556 z" fill="none" stroke="white" stroke-width="1"/>
<path d="M411.351,248.695 L388.649,248.695 L388.762,253.12 z" fill="none" stroke="white" stroke-width="1"/>
<path d="M388.649,248.695 L352.585,255.868 L388.762,253.12 z" fill="none" stroke="white" stroke-width="1"/>
<path d="M572.895,297.43 L548.761,288.78 L559.683,305.125 z" fill="none" stroke="white" stroke-width="1"/>
<path d="M559.683,305.125 L548.761,288.78 L548.984,321.72 z" fill="none" stroke="white" stroke-width="1"/>
<path d="M251.016,321.72 L220,354.174 L239.3,350.005 z" fill="none" stroke="white" stroke-width="1"/>
<path d="M216.164,373.454 L201.013,371.401 L201.013,428.599 z" fill="none" stroke="white" stroke-width="1"/>
<path d="M301.038,284.985 L270.665,292.314 L284.985,301.038 z" fill="none" stroke="white" stroke-width="1"/>
<path d="M251.016,321.72 L240.317,305.125 L220,354.174 z" fill="none" stroke="white" stroke-width="1"/>
<path d="M292.314,270.665 L270.665,292.314 L301.038,284.985 z" fill="none" stroke="white" stroke-width="1"/>
<path d="M511.22,251.239 L478.28,251.016 L507.686,270.665 z" fill="none" stroke="white" stroke-width="1"/>
<path d="M507.686,270.665 L478.28,251.016 L468.389,264.556 z" fill="none" stroke="white" stroke-width="1"/>
<path d="M447.415,255.868 L415.307,232.401 L411.351,248.695 z" fill="none" stroke="white" stroke-width="1"/>
<path d="M321.72,251.016 L292.314,270.665 L331.611,264.556 z" fill="none" stroke="white" stroke-width="1"/>
<path d="M331.611,264.556 L292.314,270.665 L301.038,284.985 z" fill="none" stroke="white" stroke-width="1"/>
<path d="M478.28,251.016 L449.995,239.3 L447.415,255.868 z" fill="none" stroke="white" stroke-width="1"/>
<path d="M411.351,248.695 L384.693,232.401 L388.649,248.695 z" fill="none" stroke="white" stroke-width="1"/>
<path d="M574.227,296.312 L572.895,297.43 L594.783,350.273 z" fill="none" stroke="white" stroke-width="1"/>
<path d="M548.761,288.78 L511.22,251.239 L507.686,270.665 z" fill="none" stroke="white" stroke-width="1"/>
<path d="M199.356,370.878 L201.013,371.401 L203.484,350.122 z" fill="none" stroke="white" stroke-width="1"/>
<path d="M205.217,350.273 L201.013,371.401 L216.164,373.454 z" fill="none" stroke="white" stroke-width="1"/>
<path d="M626.948,357.883 L620.79,358.147 L600.644,370.878 z" fill="none" stroke="white" stroke-width="1"/>
<path d="M596.516,350.122 L574.227,296.312 L594.783,350.273 z" fill="none" stroke="white" stroke-width="1"/>
<path d="M179.21,441.853 L203.484,449.878 L199.356,429.122 z" fill="none" stroke="white" stroke-width="1"/>
<path d="M179.21,441.853 L180,445.826 L203.484,449.878 z" fill="none" stroke="white" stroke-width="1"/>
<path d="M173.052,442.117 L179.21,441.853 L199.356,429.122 z" fill="none" stroke="white" stroke-width="1"/>
<path d="M620.79,358.147 L620,354.174 L596.516,350.122 z" fill="none" stroke="white" stroke-width="1"/>
<path d="M205.217,350.273 L216.164,373.454 L220,354.174 z" fill="none" stroke="white" stroke-width="1"/>
<path d="M201.013,371.401 L199.356,370.878 L199.356,429.122 z" fill="none" stroke="white" stroke-width="1"/>
<path d="M625.789,352.062 L574.227,296.312 L596.516,350.122 z" fill="none" stroke="white" stroke-width="1"/>
<path d="M572.895,297.43 L560.927,279.517 L548.761,288.78 z" fill="none" stroke="white" stroke-width="1"/>
<path d="M449.995,239.3 L415.307,232.401 L447.415,255.868 z" fill="none" stroke="white" stroke-width="1"/>
<path d="M388.649,248.695 L384.693,232.401 L352.585,255.868 z" fill="none" stroke="white" stroke-width="1"/>
<path d="M352.585,255.868 L321.72,251.016 L331.611,264.556 z" fill="none" stroke="white" stroke-width="1"/>
<path d="M350.005,239.3 L321.72,251.016 L352.585,255.868 z" fill="none" stroke="white" stroke-width="1"/>
<path d="M560.927,279.517 L511.22,251.239 L548.761,288.78 z" fill="none" stroke="white" stroke-width="1"/>
<path d="M478.28,251.016 L445.826,220 L449.995,239.3 z" fill="none" stroke="white" stroke-width="1"/>
<path d="M449.995,239.3 L445.826,220 L415.307,232.401 z" fill="none" stroke="white" stroke-width="1"/>
<path d="M251.239,288.78 L251.016,321.72 L270.665,292.314 z" fill="none" stroke="white" stroke-width="1"/>
<path d="M251.239,288.78 L240.317,305.125 L251.016,321.72 z" fill="none" stroke="white" stroke-width="1"/>
<path d="M251.239,288.78 L270.665,292.314 L292.314,270.665 z" fill="none" stroke="white" stroke-width="1"/>
<path d="M415.307,232.401 L384.693,232.401 L411.351,248.695 z" fill="none" stroke="white" stroke-width="1"/>
<path d="M384.693,232.401 L350.005,239.3 L352.585,255.868 z" fill="none" stroke="white" stroke-width="1"/>
<path d="M173.052,442.117 L174.211,447.938 L179.21,441.853 z" fill="none" stroke="white" stroke-width="1"/>
<path d="M179.21,441.853 L174.211,447.938 L180,445.826 z" fill="none" stroke="white" stroke-width="1"/>
<path d="M180,445.826 L174.211,447.938 L203.484,449.878 z" fill="none" stroke="white" stroke-width="1"/>
<path d="M620.79,358.147 L625.789,352.062 L620,354.174 z" fill="none" stroke="white" stroke-width="1"/>
<path d="M620,354.174 L625.789,352.062 L596.516,350.122 z" fill="none" stroke="white" stroke-width="1"/>
<path d="M626.948,442.117 L626.948,357.883 L600.644,370.878 z" fill="none" stroke="white" stroke-width="1"/>
<path d="M240.317,305.125 L205.217,350.273 L220,354.174 z" fill="none" stroke="white" stroke-width="1"/>
<path d="M199.356,370.878 L173.052,442.117 L199.356,429.122 z" fill="none" stroke="white" stroke-width="1"/>
<path d="M562.469,278.715 L572.895,297.43 L574.227,296.312 z" fill="none" stroke="white" stroke-width="1"/>
<path d="M562.469,278.715 L560.927,279.517 L572.895,297.43 z" fill="none" stroke="white" stroke-width="1"/>
<path d="M626.948,357.883 L625.789,352.062 L620.79,358.147 z" fill="none" stroke="white" stroke-width="1"/>
<path d="M173.052,357.883 L173.052,442.117 L199.356,370.878 z" fill="none" stroke="white" stroke-width="1"/>
<path d="M587.967,276.84 L562.469,278.715 L574.227,296.312 z" fill="none" stroke="white" stroke-width="1"/>
<path d="M560.927,279.517 L520.483,239.073 L511.22,251.239 z" fill="none" stroke="white" stroke-width="1"/>
<path d="M225.773,296.312 L203.484,350.122 L205.217,350.273 z" fill="none" stroke="white" stroke-width="1"/>
<path d="M205.217,350.273 L203.484,350.122 L201.013,371.401 z" fill="none" stroke="white" stroke-width="1"/>
<path d="M288.78,251.239 L251.239,288.78 L292.314,270.665 z" fill="none" stroke="white" stroke-width="1"/>
<path d="M240.317,305.125 L227.105,297.43 L205.217,350.273 z" fill="none" stroke="white" stroke-width="1"/>
<path d="M502.57,227.105 L494.875,240.317 L511.22,251.239 z" fill="none" stroke="white" stroke-width="1"/>
<path d="M511.22,251.239 L494.875,240.317 L478.28,251.016 z" fill="none" stroke="white" stroke-width="1"/>
<path d="M305.125,240.317 L288.78,251.239 L321.72,251.016 z" fill="none" stroke="white" stroke-width="1"/>
<path d="M321.72,251.016 L288.78,251.239 L292.314,270.665 z" fill="none" stroke="white" stroke-width="1"/>
<path d="M305.125,240.317 L321.72,251.016 L354.174,220 z" fill="none" stroke="white" stroke-width="1"/>
<path d="M494.875,240.317 L445.826,220 L478.28,251.016 z" fill="none" stroke="white" stroke-width="1"/>
<path d="M415.307,232.401 L373.454,216.164 L384.693,232.401 z" fill="none" stroke="white" stroke-width="1"/>
<path d="M354.174,220 L321.72,251.016 L350.005,239.3 z" fill="none" stroke="white" stroke-width="1"/>
<path d="M225.773,296.312 L227.105,297.43 L237.531,278.715 z" fill="none" stroke="white" stroke-width="1"/>
<path d="M251.239,288.78 L227.105,297.43 L240.317,305.125 z" fill="none" stroke="white" stroke-width="1"/>
<path d="M521.285,237.531 L520.483,239.073 L560.927,279.517 z" fill="none" stroke="white" stroke-width="1"/>
<path d="M494.875,240.317 L449.727,205.217 L445.826,220 z" fill="none" stroke="white" stroke-width="1"/>
<path d="M354.174,220 L350.005,239.3 L384.693,232.401 z" fill="none" stroke="white" stroke-width="1"/>
<path d="M445.826,220 L426.546,216.164 L415.307,232.401 z" fill="none" stroke="white" stroke-width="1"/>
<path d="M562.469,278.715 L521.285,237.531 L560.927,279.517 z" fill="none" stroke="white" stroke-width="1"/>
<path d="M520.483,239.073 L502.57,227.105 L511.22,251.239 z" fill="none" stroke="white" stroke-width="1"/>
<path d="M239.073,279.517 L227.105,297.43 L251.239,288.78 z" fill="none" stroke="white" stroke-width="1"/>
<path d="M227.105,297.43 L225.773,296.312 L205.217,350.273 z" fill="none" stroke="white" stroke-width="1"/>
<path d="M373.454,216.164 L354.174,220 L384.693,232.401 z" fill="none" stroke="white" stroke-width="1"/>
<path d="M426.546,216.164 L373.454,216.164 L415.307,232.401 z" fill="none" stroke="white" stroke-width="1"/>
<path d="M521.285,237.531 L502.57,227.105 L520.483,239.073 z" fill="none" stroke="white" stroke-width="1"/>
<path d="M445.826,220 L449.727,205.217 L426.546,216.164 z" fill="none" stroke="white" stroke-width="1"/>
<path d="M288.78,251.239 L239.073,279.517 L251.239,288.78 z" fill="none" stroke="white" stroke-width="1"/>
<path d="M237.531,278.715 L239.073,279.517 L279.517,239.073 z" fill="none" stroke="white" stroke-width="1"/>
<path d="M180,354.174 L179.21,358.147 L203.484,350.122 z" fill="none" stroke="white" stroke-width="1"/>
<path d="M203.484,350.122 L179.21,358.147 L199.356,370.878 z" fill="none" stroke="white" stroke-width="1"/>
<path d="M593.555,274.24 L587.967,276.84 L574.227,296.312 z" fill="none" stroke="white" stroke-width="1"/>
<path d="M562.469,278.715 L530.695,209.743 L521.285,237.531 z" fill="none" stroke="white" stroke-width="1"/>
<path d="M239.073,279.517 L237.531,278.715 L227.105,297.43 z" fill="none" stroke="white" stroke-width="1"/>
<path d="M174.211,352.062 L180,354.174 L203.484,350.122 z" fill="none" stroke="white" stroke-width="1"/>
<path d="M279.517,239.073 L239.073,279.517 L288.78,251.239 z" fill="none" stroke="white" stroke-width="1"/>
<path d="M523.16,212.033 L503.688,225.773 L521.285,237.531 z" fill="none" stroke="white" stroke-width="1"/>
<path d="M521.285,237.531 L503.688,225.773 L502.57,227.105 z" fill="none" stroke="white" stroke-width="1"/>
<path d="M502.57,227.105 L449.727,205.217 L494.875,240.317 z" fill="none" stroke="white" stroke-width="1"/>
<path d="M179.21,358.147 L180,354.174 L174.211,352.062 z" fill="none" stroke="white" stroke-width="1"/>
<path d="M587.967,276.84 L585.717,273.472 L562.469,278.715 z" fill="none" stroke="white" stroke-width="1"/>
<path d="M625.789,352.062 L593.555,274.24 L574.227,296.312 z" fill="none" stroke="white" stroke-width="1"/>
<path d="M587.967,276.84 L590.257,269.305 L585.717,273.472 z" fill="none" stroke="white" stroke-width="1"/>
<path d="M585.717,273.472 L590.257,269.305 L562.469,278.715 z" fill="none" stroke="white" stroke-width="1"/>
<path d="M174.211,352.062 L203.484,350.122 L225.773,296.312 z" fill="none" stroke="white" stroke-width="1"/>
<path d="M174.211,352.062 L173.052,357.883 L179.21,358.147 z" fill="none" stroke="white" stroke-width="1"/>
<path d="M179.21,358.147 L173.052,357.883 L199.356,370.878 z" fill="none" stroke="white" stroke-width="1"/>
<path d="M206.445,274.24 L174.211,352.062 L225.773,296.312 z" fill="none" stroke="white" stroke-width="1"/>
<path d="M593.555,274.24 L590.257,269.305 L587.967,276.84 z" fill="none" stroke="white" stroke-width="1"/>
<path d="M503.688,225.773 L449.727,205.217 L502.57,227.105 z" fill="none" stroke="white" stroke-width="1"/>
<path d="M426.546,216.164 L428.599,201.013 L373.454,216.164 z" fill="none" stroke="white" stroke-width="1"/>
<path d="M278.715,237.531 L279.517,239.073 L297.43,227.105 z" fill="none" stroke="white" stroke-width="1"/>
<path d="M297.43,227.105 L279.517,239.073 L288.78,251.239 z" fill="none" stroke="white" stroke-width="1"/>
<path d="M297.43,227.105 L288.78,251.239 L305.125,240.317 z" fill="none" stroke="white" stroke-width="1"/>
<path d="M279.517,239.073 L278.715,237.531 L237.531,278.715 z" fill="none" stroke="white" stroke-width="1"/>
<path d="M503.688,225.773 L449.878,203.484 L449.727,205.217 z" fill="none" stroke="white" stroke-width="1"/>
<path d="M449.727,205.217 L428.599,201.013 L426.546,216.164 z" fill="none" stroke="white" stroke-width="1"/>
<path d="M350.273,205.217 L297.43,227.105 L305.125,240.317 z" fill="none" stroke="white" stroke-width="1"/>
<path d="M296.312,225.773 L297.43,227.105 L350.273,205.217 z" fill="none" stroke="white" stroke-width="1"/>
<path d="M305.125,240.317 L354.174,220 L350.273,205.217 z" fill="none" stroke="white" stroke-width="1"/>
<path d="M449.878,203.484 L428.599,201.013 L449.727,205.217 z" fill="none" stroke="white" stroke-width="1"/>
<path d="M449.878,203.484 L429.122,199.356 L428.599,201.013 z" fill="none" stroke="white" stroke-width="1"/>
<path d="M428.599,201.013 L371.401,201.013 L373.454,216.164 z" fill="none" stroke="white" stroke-width="1"/>
<path d="M350.273,205.217 L354.174,220 L373.454,216.164 z" fill="none" stroke="white" stroke-width="1"/>
<path d="M297.43,227.105 L296.312,225.773 L278.715,237.531 z" fill="none" stroke="white" stroke-width="1"/>
<path d="M371.401,201.013 L350.273,205.217 L373.454,216.164 z" fill="none" stroke="white" stroke-width="1"/>
<path d="M429.122,199.356 L371.401,201.013 L428.599,201.013 z" fill="none" stroke="white" stroke-width="1"/>
<path d="M429.122,199.356 L370.878,199.356 L371.401,201.013 z" fill="none" stroke="white" stroke-width="1"/>
<path d="M371.401,201.013 L350.122,203.484 L350.273,205.217 z" fill="none" stroke="white" stroke-width="1"/>
<path d="M370.878,199.356 L350.122,203.484 L371.401,201.013 z" fill="none" stroke="white" stroke-width="1"/>
<path d="M350.273,205.217 L350.122,203.484 L296.312,225.773 z" fill="none" stroke="white" stroke-width="1"/>
<path d="M214.283,273.472 L212.033,276.84 L237.531,278.715 z" fill="none" stroke="white" stroke-width="1"/>
<path d="M237.531,278.715 L212.033,276.84 L225.773,296.312 z" fill="none" stroke="white" stroke-width="1"/>
<path d="M214.283,273.472 L237.531,278.715 L209.743,269.305 z" fill="none" stroke="white" stroke-width="1"/>
<path d="M530.695,209.743 L526.528,214.283 L521.285,237.531 z" fill="none" stroke="white" stroke-width="1"/>
<path d="M503.688,225.773 L447.938,174.211 L449.878,203.484 z" fill="none" stroke="white" stroke-width="1"/>
<path d="M449.878,203.484 L441.853,179.21 L429.122,199.356 z" fill="none" stroke="white" stroke-width="1"/>
<path d="M526.528,214.283 L523.16,212.033 L521.285,237.531 z" fill="none" stroke="white" stroke-width="1"/>
<path d="M212.033,276.84 L214.283,273.472 L209.743,269.305 z" fill="none" stroke="white" stroke-width="1"/>
<path d="M590.257,269.305 L530.695,209.743 L562.469,278.715 z" fill="none" stroke="white" stroke-width="1"/>
<path d="M526.528,214.283 L530.695,209.743 L523.16,212.033 z" fill="none" stroke="white" stroke-width="1"/>
<path d="M523.16,212.033 L525.76,206.445 L503.688,225.773 z" fill="none" stroke="white" stroke-width="1"/>
<path d="M209.743,269.305 L237.531,278.715 L278.715,237.531 z" fill="none" stroke="white" stroke-width="1"/>
<path d="M209.743,269.305 L206.445,274.24 L212.033,276.84 z" fill="none" stroke="white" stroke-width="1"/>
<path d="M212.033,276.84 L206.445,274.24 L225.773,296.312 z" fill="none" stroke="white" stroke-width="1"/>
<path d="M269.305,209.743 L209.743,269.305 L278.715,237.531 z" fill="none" stroke="white" stroke-width="1"/>
<path d="M530.695,209.743 L525.76,206.445 L523.16,212.033 z" fill="none" stroke="white" stroke-width="1"/>
<path d="M447.938,174.211 L445.826,180 L449.878,203.484 z" fill="none" stroke="white" stroke-width="1"/>
<path d="M429.122,199.356 L442.117,173.052 L370.878,199.356 z" fill="none" stroke="white" stroke-width="1"/>
<path d="M370.878,199.356 L358.147,179.21 L350.122,203.484 z" fill="none" stroke="white" stroke-width="1"/>
<path d="M276.84,212.033 L278.715,237.531 L296.312,225.773 z" fill="none" stroke="white" stroke-width="1"/>
<path d="M276.84,212.033 L273.472,214.283 L278.715,237.531 z" fill="none" stroke="white" stroke-width="1"/>
<path d="M276.84,212.033 L296.312,225.773 L274.24,206.445 z" fill="none" stroke="white" stroke-width="1"/>
<path d="M445.826,180 L441.853,179.21 L449.878,203.484 z" fill="none" stroke="white" stroke-width="1"/>
<path d="M274.24,206.445 L296.312,225.773 L352.062,174.211 z" fill="none" stroke="white" stroke-width="1"/>
<path d="M357.883,173.052 L358.147,179.21 L370.878,199.356 z" fill="none" stroke="white" stroke-width="1"/>
<path d="M358.147,179.21 L354.174,180 L350.122,203.484 z" fill="none" stroke="white" stroke-width="1"/>
<path d="M445.826,180 L447.938,174.211 L441.853,179.21 z" fill="none" stroke="white" stroke-width="1"/>
<path d="M441.853,179.21 L442.117,173.052 L429.122,199.356 z" fill="none" stroke="white" stroke-width="1"/>
<path d="M525.76,206.445 L447.938,174.211 L503.688,225.773 z" fill="none" stroke="white" stroke-width="1"/>
<path d="M274.24,206.445 L269.305,209.743 L276.84,212.033 z" fill="none" stroke="white" stroke-width="1"/>
<path d="M276.84,212.033 L269.305,209.743 L273.472,214.283 z" fill="none" stroke="white" stroke-width="1"/>
<path d="M273.472,214.283 L269.305,209.743 L278.715,237.531 z" fill="none" stroke="white" stroke-width="1"/>
<path d="M352.062,174.211 L296.312,225.773 L350.122,203.484 z" fill="none" stroke="white" stroke-width="1"/>
<path d="M447.938,174.211 L442.117,173.052 L441.853,179.21 z" fill="none" stroke="white" stroke-width="1"/>
<path d="M358.147,179.21 L352.062,174.211 L354.174,180 z" fill="none" stroke="white" stroke-width="1"/>
<path d="M354.174,180 L352.062,174.211 L350.122,203.484 z" fill="none" stroke="white" stroke-width="1"/>
<path d="M357.883,173.052 L352.062,174.211 L358.147,179.21 z" fill="none" stroke="white" stroke-width="1"/>
<path d="M442.117,173.052 L357.883,173.052 L370.878,199.356 z" fill="none" stroke="white" stroke-width="1"/>
<circle cx="400" cy="400" fill="lime" r="3"/>
</svg>