<svg viewBox="-200 -200 400 400" xmlns="http://www.w3.org/2000/svg">
<path d="M128.39764,9.125907 L188.8139,24.63167 L129.02567,23.316666 L69.632256,18.63428 L66.824715,18.050617 L57.33754,18.685017 L151.8472,59.17185 L102.11944,42.00896 L102.11944,-42.00896 L151.8472,-59.17185 L57.33754,-18.685017 L66.824715,-18.050617 L69.632256,-18.63428 L129.02567,-23.316666 L188.8139,-24.63167 L128.39764,-9.125907 z" fill="none" stroke="black" transform="rotate(0.00)"/>
<path d="M49.111282,0.73108315 L195.67322,18.585459 L102.25598,10.719974 L112.435974,17.980013 L76.84237,13.069573 L124.962814,28.896013 L145.92043,43.543083 L184.13696,60.05571 L184.13696,-60.05571 L145.92043,-43.543083 L124.962814,-28.896013 L76.84237,-13.069573 L112.435974,-17.980013 L102.25598,-10.719974 L195.67322,-18.585459 L49.111282,-0.73108315 z" fill="none" stroke="black" transform="rotate(22.50)"/>
<path d="M183.40414,1.7281946 L108.318436,15.215687 L119.84074,21.665457 L176.32587,32.23138 L187.54395,48.178425 L146.495,39.103683 L65.25307,19.463175 L150.88634,51.086395 L150.88634,-51.086395 L65.25307,-19.463175 L146.495,-39.103683 L187.54395,-48.178425 L176.32587,-32.23138 L119.84074,-21.665457 L108.318436,-15.215687 L183.40414,-1.7281946 z" fill="none" stroke="black" transform="rotate(45.00)"/>
<path d="M108.55732,0.6276666 L134.09529,5.301395 L49.854958,8.334174 L160.94223,28.217663 L44.506737,8.127733 L142.82358,29.279682 L185.8941,42.33105 L95.11555,23.202751 L95.11555,-23.202751 L185.8941,-42.33105 L142.82358,-29.279682 L44.506737,-8.127733 L160.94223,-28.217663 L49.854958,-8.334174 L134.09529,-5.301395 L108.55732,-0.6276666 z" fill="none" stroke="black" transform="rotate(67.50)"/>
<path d="M60.59184,1.557609 L117.13356,23.050247 L112.68076,27.216509 L68.51228,20.310022 L107.73757,35.27051 L99.985405,32.851707 L107.87648,35.57805 L91.52682,36.98894 L91.52682,-36.98894 L107.87648,-35.57805 L99.985405,-32.851707 L107.73757,-35.27051 L68.51228,-20.310022 L112.68076,-27.216509 L117.13356,-23.050247 L60.59184,-1.557609 z" fill="none" stroke="black" transform="rotate(90.00)"/>
<path d="M183.76543,17.644627 L196.69292,21.36121 L64.487,8.544863 L56.180767,8.29341 L189.00629,41.277702 L65.58613,23.645647 L144.75592,55.390236 L129.55058,50.460476 L129.55058,-50.460476 L144.75592,-55.390236 L65.58613,-23.645647 L189.00629,-41.277702 L56.180767,-8.29341 L64.487,-8.544863 L196.69292,-21.36121 L183.76543,-17.644627 z" fill="none" stroke="black" transform="rotate(112.50)"/>
<path d="M185.76396,3.366865 L119.9523,3.624073 L121.26834,11.334395 L62.78123,10.3542185 L107.506386,17.842596 L113.72382,19.210838 L43.510815,9.427166 L43.498615,16.482378 L43.498615,-16.482378 L43.510815,-9.427166 L113.72382,-19.210838 L107.506386,-17.842596 L62.78123,-10.3542185 L121.26834,-11.334395 L119.9523,-3.624073 L185.76396,-3.366865 z" fill="none" stroke="black" transform="rotate(135.00)"/>
<path d="M125.64862,2.7680047 L182.65659,20.666239 L55.931133,6.5892644 L75.93091,15.767924 L169.30669,37.173744 L49.56511,12.013725 L148.48347,36.529797 L149.78732,52.345257 L149.78732,-52.345257 L148.48347,-36.529797 L49.56511,-12.013725 L169.30669,-37.173744 L75.93091,-15.767924 L55.931133,-6.5892644 L182.65659,-20.666239 L125.64862,-2.7680047 z" fill="none" stroke="black" transform="rotate(157.50)"/>
<path d="M69.07854,1.8955276 L173.35098,11.550576 L91.02039,10.58291 L60.905304,8.046933 L59.72543,9.506511 L64.99121,14.834514 L114.04465,38.05699 L69.449554,26.33455 L69.449554,-26.33455 L114.04465,-38.05699 L64.99121,-14.834514 L59.72543,-9.506511 L60.905304,-8.046933 L91.02039,-10.58291 L173.35098,-11.550576 L69.07854,-1.8955276 z" fill="none" stroke="black" transform="rotate(180.00)"/>
<path d="M89.57359,3.6038582 L130.12825,13.645362 L56.21148,8.486725 L120.36383,27.283972 L89.565025,25.62614 L61.440083,17.656612 L105.19036,37.413918 L110.585495,45.32404 L110.585495,-45.32404 L105.19036,-37.413918 L61.440083,-17.656612 L89.565025,-25.62614 L120.36383,-27.283972 L56.21148,-8.486725 L130.12825,-13.645362 L89.57359,-3.6038582 z" fill="none" stroke="black" transform="rotate(202.50)"/>
<path d="M138.6638,3.7278774 L110.93816,7.82079 L191.90018,30.012468 L139.83136,30.721252 L103.94005,33.111607 L172.99632,57.365974 L186.12656,69.07047 L71.63011,27.626177 L71.63011,-27.626177 L186.12656,-69.07047 L172.99632,-57.365974 L103.94005,-33.111607 L139.83136,-30.721252 L191.90018,-30.012468 L110.93816,-7.82079 L138.6638,-3.7278774 z" fill="none" stroke="black" transform="rotate(225.00)"/>
<path d="M61.252205,4.618379 L172.37126,16.65922 L148.12325,14.735972 L45.792786,7.1894736 L42.13611,9.318008 L62.949596,14.879729 L146.53702,38.014465 L158.65742,42.64414 L158.65742,-42.64414 L146.53702,-38.014465 L62.949596,-14.879729 L42.13611,-9.318008 L45.792786,-7.1894736 L148.12325,-14.735972 L172.37126,-16.65922 L61.252205,-4.618379 z" fill="none" stroke="black" transform="rotate(247.50)"/>
<path d="M128.01888,0.2833673 L138.52136,4.6611304 L188.54997,17.406553 L79.33239,20.571041 L40.027573,12.762208 L122.49508,39.471962 L69.2753,26.90842 L154.18542,61.226643 L154.18542,-61.226643 L69.2753,-26.90842 L122.49508,-39.471962 L40.027573,-12.762208 L79.33239,-20.571041 L188.54997,-17.406553 L138.52136,-4.6611304 L128.01888,-0.2833673 z" fill="none" stroke="black" transform="rotate(270.00)"/>
<path d="M98.75092,0.29689977 L116.03954,0.8306144 L161.2596,10.966589 L92.361984,8.098263 L84.44555,8.445811 L49.068512,5.1126056 L105.35642,14.015869 L90.72414,24.626719 L90.72414,-24.626719 L105.35642,-14.015869 L49.068512,-5.1126056 L84.44555,-8.445811 L92.361984,-8.098263 L161.2596,-10.966589 L116.03954,-0.8306144 L98.75092,-0.29689977 z" fill="none" stroke="black" transform="rotate(292.50)"/>
<path d="M120.67802,4.5991654 L173.89644,12.881354 L150.14066,14.6085825 L121.58951,24.382158 L97.9014,29.343832 L77.109245,26.916346 L100.981224,38.484837 L134.21472,54.557472 L134.21472,-54.557472 L100.981224,-38.484837 L77.109245,-26.916346 L97.9014,-29.343832 L121.58951,-24.382158 L150.14066,-14.6085825 L173.89644,-12.881354 L120.67802,-4.5991654 z" fill="none" stroke="black" transform="rotate(315.00)"/>
<path d="M168.1569,13.322028 L113.08219,11.401118 L154.51482,20.572798 L98.083694,17.563585 L61.45839,11.418208 L131.05618,25.026415 L64.8959,14.804803 L43.757053,13.355631 L43.757053,-13.355631 L64.8959,-14.804803 L131.05618,-25.026415 L61.45839,-11.418208 L98.083694,-17.563585 L154.51482,-20.572798 L113.08219,-11.401118 L168.1569,-13.322028 z" fill="none" stroke="black" transform="rotate(337.50)"/>
</svg>